<svg width="1649" height="664" viewBox="0 0 1649 664" fill="none" xmlns="http://www.w3.org/2000/svg">
<mask id="path-1-outside-1_4010_11088" maskUnits="userSpaceOnUse" x="28.0728" y="93.5024" width="387" height="476" fill="black">
<rect fill="white" x="28.0728" y="93.5024" width="387" height="476"/>
<path d="M386.328 348.076C388.36 340.277 390.513 332.6 391.584 324.631C394.82 300.382 390.939 277.143 382.556 254.452C381.862 252.566 381.023 250.692 379.952 249.001C375.791 242.492 368.406 242.261 364.087 248.709C362.213 251.52 360.96 254.817 359.792 258.017C351.762 280.039 341.128 300.491 324.423 317.318C315.881 325.908 306.415 333.342 295.307 340.168C297.242 332.405 300.746 325.981 303.666 319.776C315.127 295.442 320.991 269.77 324.544 243.417C327.537 221.236 327.975 198.886 322.111 177.18C311.428 137.577 288.056 109.009 246.931 98.9469C205.381 88.7875 170.499 101.332 142.612 133.537C134.947 142.395 127.903 151.788 120.262 160.67C107.523 175.501 91.84 186.208 73.6505 193.398C68.151 195.564 62.5908 195.333 56.9697 195.382C52.1151 195.418 47.224 195.43 42.6614 197.304C28.7911 202.998 25.6886 220.226 36.8456 232.028C47.5038 243.307 61.5322 247.724 76.4975 250.145C94.7479 253.101 111.623 247.188 128.754 242.833C144.973 238.708 161.13 234.316 177.312 230.045C180.208 229.279 183.968 227.94 185.756 230.301C187.338 232.381 184.978 235.642 183.651 238.1C179.709 245.424 173.504 250.522 166.727 255.085C149.475 266.692 131.103 276.62 114.969 289.87C84.1384 315.189 63.4425 346.653 58.5392 386.864C52.8451 433.561 67.2994 474.32 98.0938 509.202C118.352 532.149 143.002 549.523 172.361 558.673C228.924 576.303 281.717 568.175 329.362 532.247C378.2 495.405 403.592 445.107 411.586 385.319C412.973 374.941 413.569 364.356 412.146 353.843C410.406 340.971 402.887 337.71 392.423 345.217C390.951 346.276 389.43 347.249 387.885 348.198C387.63 348.356 387.167 348.149 386.328 348.064V348.076ZM110.066 195.808C110.492 195.321 111.165 194.541 111.591 194.054C124.451 183.846 137.113 173.956 147.516 160.219C150.351 183.714 162.87 199.677 184.041 209.483C179.758 211.235 176.327 212.245 172.847 213.012C146.056 218.949 119.654 226.687 92.5092 231.079C79.5028 233.184 67.3602 230.897 56.3492 223.451C50.7645 219.679 50.2414 215.834 54.6458 211.442C57.8092 209.799 61.2889 210.237 64.647 209.86C70.7304 209.179 76.826 208.522 82.8852 207.707C92.5578 206.405 100.637 201.21 108.995 196.732C109.348 196.416 109.701 196.112 110.054 195.795L110.066 195.808ZM272.802 330.932C274.627 332.149 274.349 333.313 274.019 333.974C271.062 339.887 270.466 340.921 267.327 346.749C266.111 348.574 264.285 348.168 263.069 347.357C257.594 343.707 256.985 343.347 251.36 340.095C238.735 332.795 226.588 324.485 214.555 316.138C212.767 314.897 211.915 313.413 211.611 311.211C210.26 301.453 208.703 291.719 207.109 281.219C215.468 287.363 223.182 293.289 231.151 298.849C245.727 308.996 259.358 319.312 272.802 330.932ZM370.012 286.378C370.015 286.381 370.017 286.383 370.02 286.386C372.055 288.415 371.776 290.554 372.007 292.51C375.171 318.754 370.328 343.197 357.967 366.217C356.446 369.064 354.316 372.301 352.455 374.77C347.625 380.817 311.805 421.394 315.382 424.01C319.42 427.772 366.027 394.153 369.525 389.334C376.436 383.458 382.13 374.32 389.479 368.955C390.367 368.298 391.353 366.935 392.557 368.054C393.153 368.602 393.348 369.904 393.263 370.828C392.521 378.871 392.143 386.974 390.769 394.907C386.656 418.608 377.75 440.678 365.656 461.301C342.624 500.576 310.723 529.314 265.912 541.542C246.165 546.932 225.992 546.445 205.734 544.572C183.87 542.552 164.184 535.3 146.482 522.355C143.89 520.457 142.868 518.522 143.026 515.347C143.586 503.594 144.912 491.974 148.647 480.768C152.565 469.027 157.432 457.724 162.773 446.506C169.416 432.575 177.726 420.092 188.36 409.142C206.805 390.125 230.384 380.829 255.57 375.196C269.817 372.009 284.016 368.042 296.962 361.934C319.069 351.519 337.502 335.763 352.2 315.822C359.011 306.577 364.838 296.81 370.02 286.386C370.021 286.383 370.023 286.381 370.024 286.378H370.012ZM280.804 323.767C256.47 304.178 231.248 288.495 207.827 270.342C203.386 266.899 200.746 254.671 203.131 249.476C206.635 241.871 209.214 234.133 207.681 225.495C205.26 211.892 196.938 202.803 185.148 197C168.564 188.836 160.096 175.756 157.858 157.652C157.213 152.481 158.089 148.819 161.179 144.938C181.522 119.399 216.441 108.851 248.087 120.373C283.018 133.099 300.636 160.341 304.992 195.99C310.443 240.606 297.193 282.034 280.792 323.755L280.804 323.767ZM153.94 374.77C163.588 357.554 173.091 340.46 184.248 324.375C185.148 323.073 186.292 320.798 187.228 320.847C194.322 321.236 201.902 319.411 208.375 323.207C215.151 327.186 221.369 332.113 228.194 336.871C202.425 348.003 178.432 361.727 153.952 374.77H153.94ZM123.997 365.524C123.994 365.522 123.992 365.52 123.989 365.518C123.772 365.374 123.544 365.23 123.328 365.086C129.363 342.163 135.41 319.241 141.432 296.318C141.773 295.041 142.588 294.25 143.683 293.642C149.45 290.442 154.816 286.487 161.568 283.945C163.333 291.658 164.987 299.092 166.764 306.502C167.409 309.166 166.435 311.101 164.817 313.109C159.512 319.727 154.317 326.431 149.11 333.123C140.728 343.913 132.359 354.728 123.989 365.518L123.985 365.524H123.997ZM192.509 261.095C194.2 267.179 195.66 272.374 197.096 277.581C197.582 279.358 197.619 280.513 195.04 280.586C187.387 280.818 179.746 281.329 172.105 281.852C170.548 281.961 169.367 281.973 168.735 280.27C167.968 278.202 169.72 277.91 170.815 277.265C178.286 272.824 184.929 267.252 192.509 261.107V261.095Z"/>
<path d="M280.804 323.767C256.47 304.178 231.248 288.495 207.827 270.342C203.386 266.899 200.746 254.671 203.131 249.476C206.635 241.871 209.214 234.133 207.681 225.495C205.26 211.892 196.938 202.803 185.148 197C168.564 188.836 160.096 175.756 157.858 157.652C157.213 152.481 158.089 148.819 161.179 144.938C181.522 119.399 216.441 108.851 248.087 120.373C283.018 133.099 300.636 160.341 304.992 195.99C310.443 240.606 297.193 282.034 280.792 323.755L280.804 323.767Z"/>
<path d="M372.007 292.51C371.776 290.554 372.055 288.415 370.02 286.386C364.838 296.81 359.011 306.577 352.2 315.822C337.502 335.763 319.069 351.519 296.962 361.934C284.016 368.042 269.817 372.009 255.57 375.196C230.384 380.829 206.805 390.125 188.36 409.142C177.726 420.092 169.416 432.575 162.773 446.506C157.432 457.724 152.565 469.027 148.647 480.768C144.912 491.974 143.586 503.594 143.026 515.347C142.868 518.522 143.89 520.457 146.482 522.355C164.184 535.3 183.87 542.552 205.734 544.572C225.992 546.445 246.165 546.932 265.912 541.542C310.723 529.314 342.624 500.576 365.656 461.301C377.75 440.678 386.656 418.608 390.769 394.907C392.143 386.974 392.521 378.871 393.263 370.828C393.348 369.904 393.153 368.602 392.557 368.054C391.353 366.935 390.367 368.298 389.479 368.955C382.13 374.32 376.436 383.458 369.525 389.334C366.027 394.153 319.42 427.772 315.382 424.01C311.805 421.394 347.625 380.817 352.455 374.77C354.316 372.301 356.446 369.064 357.967 366.217C370.328 343.197 375.171 318.754 372.007 292.51Z"/>
<path d="M272.802 330.932C274.627 332.149 274.349 333.313 274.019 333.974C271.062 339.887 270.466 340.921 267.327 346.749C266.111 348.574 264.285 348.168 263.069 347.357C257.594 343.707 256.985 343.347 251.36 340.095C238.735 332.795 226.588 324.485 214.555 316.138C212.767 314.897 211.915 313.413 211.611 311.211C210.26 301.453 208.703 291.719 207.109 281.219C215.468 287.363 223.182 293.289 231.151 298.849C245.727 308.996 259.358 319.312 272.802 330.932Z"/>
<path d="M153.94 374.77C163.588 357.554 173.091 340.46 184.248 324.375C185.148 323.073 186.292 320.798 187.228 320.847C194.322 321.236 201.902 319.411 208.375 323.207C215.151 327.186 221.369 332.113 228.194 336.871C202.425 348.003 178.432 361.727 153.952 374.77H153.94Z"/>
<path d="M123.328 365.086C123.544 365.23 123.772 365.374 123.989 365.518C132.359 354.728 140.728 343.913 149.11 333.123C154.317 326.431 159.512 319.727 164.817 313.109C166.435 311.101 167.409 309.166 166.764 306.502C164.987 299.092 163.333 291.658 161.568 283.945C154.816 286.487 149.45 290.442 143.683 293.642C142.588 294.25 141.773 295.041 141.432 296.318C135.41 319.241 129.363 342.163 123.328 365.086Z"/>
<path d="M192.509 261.095C194.2 267.179 195.66 272.374 197.096 277.581C197.582 279.358 197.619 280.513 195.04 280.586C187.387 280.818 179.746 281.329 172.105 281.852C170.548 281.961 169.367 281.973 168.735 280.27C167.968 278.202 169.72 277.91 170.815 277.265C178.286 272.824 184.929 267.252 192.509 261.107V261.095Z"/>
<path d="M110.066 195.808C110.492 195.321 111.165 194.541 111.591 194.054C124.451 183.846 137.113 173.956 147.516 160.219C150.351 183.714 162.87 199.677 184.041 209.483C179.758 211.235 176.327 212.245 172.847 213.012C146.056 218.949 119.654 226.687 92.5092 231.079C79.5028 233.184 67.3602 230.897 56.3492 223.451C50.7645 219.679 50.2414 215.834 54.6458 211.442C57.8092 209.799 61.2889 210.237 64.647 209.86C70.7304 209.179 76.826 208.522 82.8852 207.707C92.5578 206.405 100.637 201.21 108.995 196.732C109.348 196.416 109.701 196.112 110.054 195.795L110.066 195.808Z"/>
</mask>
<path d="M386.328 348.076C388.36 340.277 390.513 332.6 391.584 324.631C394.82 300.382 390.939 277.143 382.556 254.452C381.862 252.566 381.023 250.692 379.952 249.001C375.791 242.492 368.406 242.261 364.087 248.709C362.213 251.52 360.96 254.817 359.792 258.017C351.762 280.039 341.128 300.491 324.423 317.318C315.881 325.908 306.415 333.342 295.307 340.168C297.242 332.405 300.746 325.981 303.666 319.776C315.127 295.442 320.991 269.77 324.544 243.417C327.537 221.236 327.975 198.886 322.111 177.18C311.428 137.577 288.056 109.009 246.931 98.9469C205.381 88.7875 170.499 101.332 142.612 133.537C134.947 142.395 127.903 151.788 120.262 160.67C107.523 175.501 91.84 186.208 73.6505 193.398C68.151 195.564 62.5908 195.333 56.9697 195.382C52.1151 195.418 47.224 195.43 42.6614 197.304C28.7911 202.998 25.6886 220.226 36.8456 232.028C47.5038 243.307 61.5322 247.724 76.4975 250.145C94.7479 253.101 111.623 247.188 128.754 242.833C144.973 238.708 161.13 234.316 177.312 230.045C180.208 229.279 183.968 227.94 185.756 230.301C187.338 232.381 184.978 235.642 183.651 238.1C179.709 245.424 173.504 250.522 166.727 255.085C149.475 266.692 131.103 276.62 114.969 289.87C84.1384 315.189 63.4425 346.653 58.5392 386.864C52.8451 433.561 67.2994 474.32 98.0938 509.202C118.352 532.149 143.002 549.523 172.361 558.673C228.924 576.303 281.717 568.175 329.362 532.247C378.2 495.405 403.592 445.107 411.586 385.319C412.973 374.941 413.569 364.356 412.146 353.843C410.406 340.971 402.887 337.71 392.423 345.217C390.951 346.276 389.43 347.249 387.885 348.198C387.63 348.356 387.167 348.149 386.328 348.064V348.076ZM110.066 195.808C110.492 195.321 111.165 194.541 111.591 194.054C124.451 183.846 137.113 173.956 147.516 160.219C150.351 183.714 162.87 199.677 184.041 209.483C179.758 211.235 176.327 212.245 172.847 213.012C146.056 218.949 119.654 226.687 92.5092 231.079C79.5028 233.184 67.3602 230.897 56.3492 223.451C50.7645 219.679 50.2414 215.834 54.6458 211.442C57.8092 209.799 61.2889 210.237 64.647 209.86C70.7304 209.179 76.826 208.522 82.8852 207.707C92.5578 206.405 100.637 201.21 108.995 196.732C109.348 196.416 109.701 196.112 110.054 195.795L110.066 195.808ZM272.802 330.932C274.627 332.149 274.349 333.313 274.019 333.974C271.062 339.887 270.466 340.921 267.327 346.749C266.111 348.574 264.285 348.168 263.069 347.357C257.594 343.707 256.985 343.347 251.36 340.095C238.735 332.795 226.588 324.485 214.555 316.138C212.767 314.897 211.915 313.413 211.611 311.211C210.26 301.453 208.703 291.719 207.109 281.219C215.468 287.363 223.182 293.289 231.151 298.849C245.727 308.996 259.358 319.312 272.802 330.932ZM370.012 286.378C370.015 286.381 370.017 286.383 370.02 286.386C372.055 288.415 371.776 290.554 372.007 292.51C375.171 318.754 370.328 343.197 357.967 366.217C356.446 369.064 354.316 372.301 352.455 374.77C347.625 380.817 311.805 421.394 315.382 424.01C319.42 427.772 366.027 394.153 369.525 389.334C376.436 383.458 382.13 374.32 389.479 368.955C390.367 368.298 391.353 366.935 392.557 368.054C393.153 368.602 393.348 369.904 393.263 370.828C392.521 378.871 392.143 386.974 390.769 394.907C386.656 418.608 377.75 440.678 365.656 461.301C342.624 500.576 310.723 529.314 265.912 541.542C246.165 546.932 225.992 546.445 205.734 544.572C183.87 542.552 164.184 535.3 146.482 522.355C143.89 520.457 142.868 518.522 143.026 515.347C143.586 503.594 144.912 491.974 148.647 480.768C152.565 469.027 157.432 457.724 162.773 446.506C169.416 432.575 177.726 420.092 188.36 409.142C206.805 390.125 230.384 380.829 255.57 375.196C269.817 372.009 284.016 368.042 296.962 361.934C319.069 351.519 337.502 335.763 352.2 315.822C359.011 306.577 364.838 296.81 370.02 286.386C370.021 286.383 370.023 286.381 370.024 286.378H370.012ZM280.804 323.767C256.47 304.178 231.248 288.495 207.827 270.342C203.386 266.899 200.746 254.671 203.131 249.476C206.635 241.871 209.214 234.133 207.681 225.495C205.26 211.892 196.938 202.803 185.148 197C168.564 188.836 160.096 175.756 157.858 157.652C157.213 152.481 158.089 148.819 161.179 144.938C181.522 119.399 216.441 108.851 248.087 120.373C283.018 133.099 300.636 160.341 304.992 195.99C310.443 240.606 297.193 282.034 280.792 323.755L280.804 323.767ZM153.94 374.77C163.588 357.554 173.091 340.46 184.248 324.375C185.148 323.073 186.292 320.798 187.228 320.847C194.322 321.236 201.902 319.411 208.375 323.207C215.151 327.186 221.369 332.113 228.194 336.871C202.425 348.003 178.432 361.727 153.952 374.77H153.94ZM123.997 365.524C123.994 365.522 123.992 365.52 123.989 365.518C123.772 365.374 123.544 365.23 123.328 365.086C129.363 342.163 135.41 319.241 141.432 296.318C141.773 295.041 142.588 294.25 143.683 293.642C149.45 290.442 154.816 286.487 161.568 283.945C163.333 291.658 164.987 299.092 166.764 306.502C167.409 309.166 166.435 311.101 164.817 313.109C159.512 319.727 154.317 326.431 149.11 333.123C140.728 343.913 132.359 354.728 123.989 365.518L123.985 365.524H123.997ZM192.509 261.095C194.2 267.179 195.66 272.374 197.096 277.581C197.582 279.358 197.619 280.513 195.04 280.586C187.387 280.818 179.746 281.329 172.105 281.852C170.548 281.961 169.367 281.973 168.735 280.27C167.968 278.202 169.72 277.91 170.815 277.265C178.286 272.824 184.929 267.252 192.509 261.107V261.095Z" fill="#7D3D38"/>
<path d="M280.804 323.767C256.47 304.178 231.248 288.495 207.827 270.342C203.386 266.899 200.746 254.671 203.131 249.476C206.635 241.871 209.214 234.133 207.681 225.495C205.26 211.892 196.938 202.803 185.148 197C168.564 188.836 160.096 175.756 157.858 157.652C157.213 152.481 158.089 148.819 161.179 144.938C181.522 119.399 216.441 108.851 248.087 120.373C283.018 133.099 300.636 160.341 304.992 195.99C310.443 240.606 297.193 282.034 280.792 323.755L280.804 323.767Z" fill="#7D3D38"/>
<path d="M372.007 292.51C371.776 290.554 372.055 288.415 370.02 286.386C364.838 296.81 359.011 306.577 352.2 315.822C337.502 335.763 319.069 351.519 296.962 361.934C284.016 368.042 269.817 372.009 255.57 375.196C230.384 380.829 206.805 390.125 188.36 409.142C177.726 420.092 169.416 432.575 162.773 446.506C157.432 457.724 152.565 469.027 148.647 480.768C144.912 491.974 143.586 503.594 143.026 515.347C142.868 518.522 143.89 520.457 146.482 522.355C164.184 535.3 183.87 542.552 205.734 544.572C225.992 546.445 246.165 546.932 265.912 541.542C310.723 529.314 342.624 500.576 365.656 461.301C377.75 440.678 386.656 418.608 390.769 394.907C392.143 386.974 392.521 378.871 393.263 370.828C393.348 369.904 393.153 368.602 392.557 368.054C391.353 366.935 390.367 368.298 389.479 368.955C382.13 374.32 376.436 383.458 369.525 389.334C366.027 394.153 319.42 427.772 315.382 424.01C311.805 421.394 347.625 380.817 352.455 374.77C354.316 372.301 356.446 369.064 357.967 366.217C370.328 343.197 375.171 318.754 372.007 292.51Z" fill="#7D3D38"/>
<path d="M272.802 330.932C274.627 332.149 274.349 333.313 274.019 333.974C271.062 339.887 270.466 340.921 267.327 346.749C266.111 348.574 264.285 348.168 263.069 347.357C257.594 343.707 256.985 343.347 251.36 340.095C238.735 332.795 226.588 324.485 214.555 316.138C212.767 314.897 211.915 313.413 211.611 311.211C210.26 301.453 208.703 291.719 207.109 281.219C215.468 287.363 223.182 293.289 231.151 298.849C245.727 308.996 259.358 319.312 272.802 330.932Z" fill="#7D3D38"/>
<path d="M153.94 374.77C163.588 357.554 173.091 340.46 184.248 324.375C185.148 323.073 186.292 320.798 187.228 320.847C194.322 321.236 201.902 319.411 208.375 323.207C215.151 327.186 221.369 332.113 228.194 336.871C202.425 348.003 178.432 361.727 153.952 374.77H153.94Z" fill="#7D3D38"/>
<path d="M123.328 365.086C123.544 365.23 123.772 365.374 123.989 365.518C132.359 354.728 140.728 343.913 149.11 333.123C154.317 326.431 159.512 319.727 164.817 313.109C166.435 311.101 167.409 309.166 166.764 306.502C164.987 299.092 163.333 291.658 161.568 283.945C154.816 286.487 149.45 290.442 143.683 293.642C142.588 294.25 141.773 295.041 141.432 296.318C135.41 319.241 129.363 342.163 123.328 365.086Z" fill="#7D3D38"/>
<path d="M192.509 261.095C194.2 267.179 195.66 272.374 197.096 277.581C197.582 279.358 197.619 280.513 195.04 280.586C187.387 280.818 179.746 281.329 172.105 281.852C170.548 281.961 169.367 281.973 168.735 280.27C167.968 278.202 169.72 277.91 170.815 277.265C178.286 272.824 184.929 267.252 192.509 261.107V261.095Z" fill="#7D3D38"/>
<path d="M110.066 195.808C110.492 195.321 111.165 194.541 111.591 194.054C124.451 183.846 137.113 173.956 147.516 160.219C150.351 183.714 162.87 199.677 184.041 209.483C179.758 211.235 176.327 212.245 172.847 213.012C146.056 218.949 119.654 226.687 92.5092 231.079C79.5028 233.184 67.3602 230.897 56.3492 223.451C50.7645 219.679 50.2414 215.834 54.6458 211.442C57.8092 209.799 61.2889 210.237 64.647 209.86C70.7304 209.179 76.826 208.522 82.8852 207.707C92.5578 206.405 100.637 201.21 108.995 196.732C109.348 196.416 109.701 196.112 110.054 195.795L110.066 195.808Z" fill="#7D3D38"/>
<path d="M110.066 195.808L109.636 196.238L110.096 196.697L110.524 196.208L110.066 195.808ZM111.591 194.054L111.213 193.578L111.169 193.612L111.133 193.654L111.591 194.054ZM147.516 160.219L148.12 160.146L147.939 158.652L147.031 159.852L147.516 160.219ZM184.041 209.483L184.271 210.046L185.563 209.518L184.296 208.931L184.041 209.483ZM172.847 213.012L172.716 212.417L172.716 212.418L172.847 213.012ZM92.5092 231.079L92.412 230.479H92.412L92.5092 231.079ZM56.3492 223.451L56.6899 222.947L56.6896 222.947L56.3492 223.451ZM54.6458 211.442L54.3655 210.902L54.2825 210.945L54.2162 211.011L54.6458 211.442ZM64.647 209.86L64.5793 209.256L64.5791 209.256L64.647 209.86ZM82.8852 207.707L82.9663 208.31L82.9663 208.31L82.8852 207.707ZM108.995 196.732L109.283 197.268L109.347 197.234L109.401 197.185L108.995 196.732ZM110.054 195.795L110.484 195.365L110.076 194.958L109.648 195.342L110.054 195.795ZM272.802 330.932L272.405 331.392L272.433 331.417L272.465 331.438L272.802 330.932ZM267.327 346.749L267.833 347.086L267.849 347.062L267.863 347.037L267.327 346.749ZM263.069 347.357L263.406 346.851L263.069 347.357ZM251.36 340.095L251.056 340.621L251.36 340.095ZM214.555 316.138L214.208 316.638L214.209 316.638L214.555 316.138ZM211.611 311.211L212.214 311.127L212.214 311.127L211.611 311.211ZM207.109 281.219L207.469 280.729L206.288 279.86L206.508 281.31L207.109 281.219ZM231.151 298.849L230.803 299.348L230.803 299.348L231.151 298.849ZM372.007 292.51L371.403 292.581L371.403 292.583L372.007 292.51ZM357.967 366.217L357.431 365.929L357.43 365.93L357.967 366.217ZM352.455 374.77L352.93 375.15L352.936 375.143L352.941 375.137L352.455 374.77ZM315.382 424.01L315.797 423.565L315.771 423.54L315.742 423.519L315.382 424.01ZM369.525 389.334L369.131 388.871L369.076 388.918L369.033 388.977L369.525 389.334ZM389.479 368.955L389.838 369.446L389.841 369.444L389.479 368.955ZM392.557 368.054L392.143 368.5L392.146 368.502L392.557 368.054ZM393.263 370.828L393.869 370.884L393.869 370.884L393.263 370.828ZM390.769 394.907L391.368 395.011L391.368 395.01L390.769 394.907ZM365.656 461.301L366.181 461.609L365.656 461.301ZM265.912 541.542L265.752 540.955L265.752 540.955L265.912 541.542ZM205.734 544.572L205.79 543.966H205.79L205.734 544.572ZM146.482 522.355L146.122 522.846L146.122 522.846L146.482 522.355ZM143.026 515.347L143.634 515.377L143.634 515.376L143.026 515.347ZM148.647 480.768L148.07 480.576L148.07 480.576L148.647 480.768ZM162.773 446.506L162.224 446.245L162.224 446.245L162.773 446.506ZM188.36 409.142L188.796 409.566L188.797 409.565L188.36 409.142ZM255.57 375.196L255.703 375.79H255.703L255.57 375.196ZM296.962 361.934L296.703 361.384L296.702 361.384L296.962 361.934ZM352.2 315.822L352.689 316.183L352.689 316.183L352.2 315.822ZM280.804 323.767L280.423 324.241L281.234 323.337L280.804 323.767ZM207.827 270.342L207.454 270.823L207.454 270.823L207.827 270.342ZM203.131 249.476L202.578 249.221L202.578 249.222L203.131 249.476ZM207.681 225.495L208.28 225.388L208.28 225.388L207.681 225.495ZM185.148 197L184.879 197.546L184.879 197.546L185.148 197ZM157.858 157.652L158.461 157.577L158.461 157.577L157.858 157.652ZM161.179 144.938L160.703 144.559L160.703 144.559L161.179 144.938ZM248.087 120.373L248.296 119.801L248.295 119.801L248.087 120.373ZM304.992 195.99L305.596 195.916V195.916L304.992 195.99ZM280.792 323.755L280.226 323.532L280.08 323.903L280.362 324.185L280.792 323.755ZM153.94 374.77L153.409 374.473L152.902 375.379H153.94V374.77ZM184.248 324.375L184.747 324.722L184.748 324.721L184.248 324.375ZM187.228 320.847L187.262 320.239L187.26 320.239L187.228 320.847ZM208.375 323.207L208.683 322.682L208.682 322.682L208.375 323.207ZM228.194 336.871L228.436 337.429L229.438 336.996L228.542 336.371L228.194 336.871ZM153.952 374.77V375.379H154.104L154.238 375.307L153.952 374.77ZM123.328 365.086L122.74 364.931L122.629 365.351L122.99 365.592L123.328 365.086ZM141.432 296.318L140.844 296.161L140.844 296.164L141.432 296.318ZM143.683 293.642L143.388 293.11L143.388 293.11L143.683 293.642ZM161.568 283.945L162.162 283.809L162.006 283.13L161.354 283.375L161.568 283.945ZM166.764 306.502L166.172 306.644L166.172 306.645L166.764 306.502ZM164.817 313.109L164.343 312.727L164.342 312.728L164.817 313.109ZM149.11 333.123L148.629 332.749L148.629 332.75L149.11 333.123ZM192.509 261.095L193.095 260.932L191.901 261.095H192.509ZM197.096 277.581L197.683 277.42L197.682 277.42L197.096 277.581ZM195.04 280.586L195.022 279.978L195.021 279.978L195.04 280.586ZM172.105 281.852L172.063 281.245L172.062 281.245L172.105 281.852ZM168.735 280.27L168.164 280.482L168.165 280.482L168.735 280.27ZM170.815 277.265L171.124 277.789L171.126 277.788L170.815 277.265ZM192.509 261.107L192.892 261.58L193.117 261.397V261.107H192.509ZM370.02 286.386L370.45 285.955L369.851 285.359L369.475 286.115L370.02 286.386ZM123.989 365.518L123.652 366.025L124.123 366.338L124.47 365.891L123.989 365.518ZM110.524 196.208C110.738 195.964 111.013 195.646 111.288 195.33C111.563 195.013 111.837 194.697 112.049 194.455L111.133 193.654C110.919 193.898 110.644 194.216 110.369 194.532C110.094 194.849 109.82 195.165 109.608 195.407L110.524 196.208ZM111.969 194.531C124.818 184.332 137.544 174.395 148.001 160.587L147.031 159.852C136.682 173.517 124.084 183.361 111.213 193.578L111.969 194.531ZM146.912 160.292C149.774 184.01 162.437 200.146 183.785 210.035L184.296 208.931C163.303 199.207 150.928 183.417 148.12 160.146L146.912 160.292ZM183.81 208.92C179.561 210.658 176.163 211.658 172.716 212.417L172.978 213.606C176.49 212.832 179.955 211.812 184.271 210.046L183.81 208.92ZM172.716 212.418C145.866 218.368 119.538 226.089 92.412 230.479L92.6063 231.68C119.769 227.285 146.245 219.53 172.979 213.605L172.716 212.418ZM92.412 230.479C79.5457 232.561 67.5623 230.299 56.6899 222.947L56.0084 223.955C67.1581 231.495 79.4598 233.807 92.6064 231.68L92.412 230.479ZM56.6896 222.947C53.9445 221.093 52.596 219.317 52.354 217.594C52.1148 215.891 52.9285 214.014 55.0754 211.873L54.2162 211.011C51.9586 213.263 50.8317 215.503 51.1492 217.764C51.4638 220.004 53.1692 222.037 56.0087 223.955L56.6896 222.947ZM54.9261 211.982C56.4055 211.214 57.975 210.923 59.6248 210.783C60.452 210.713 61.2851 210.681 62.1394 210.643C62.9878 210.606 63.853 210.562 64.7149 210.465L64.5791 209.256C63.7619 209.348 62.9329 209.39 62.0855 209.428C61.244 209.465 60.3799 209.498 59.522 209.57C57.8016 209.716 56.0495 210.028 54.3655 210.902L54.9261 211.982ZM64.7147 210.465C70.7943 209.784 76.8987 209.126 82.9663 208.31L82.804 207.104C76.7534 207.918 70.6665 208.574 64.5793 209.256L64.7147 210.465ZM82.9663 208.31C92.7787 206.989 100.987 201.712 109.283 197.268L108.708 196.196C100.287 200.707 92.337 205.821 82.804 207.104L82.9663 208.31ZM109.401 197.185C109.575 197.029 109.75 196.876 109.926 196.721C110.102 196.566 110.281 196.409 110.46 196.248L109.648 195.342C109.474 195.498 109.3 195.651 109.123 195.807C108.947 195.962 108.768 196.119 108.589 196.279L109.401 197.185ZM109.624 196.226L109.636 196.238L110.496 195.377L110.484 195.365L109.624 196.226ZM272.465 331.438C273.293 331.99 273.552 332.467 273.625 332.794C273.7 333.127 273.609 333.433 273.475 333.702L274.563 334.246C274.759 333.854 274.973 333.247 274.813 332.529C274.651 331.804 274.137 331.09 273.14 330.426L272.465 331.438ZM273.475 333.702C270.523 339.605 269.931 340.632 266.792 346.46L267.863 347.037C271.002 341.21 271.602 340.168 274.563 334.246L273.475 333.702ZM266.821 346.411C266.316 347.168 265.733 347.415 265.178 347.434C264.585 347.453 263.949 347.213 263.406 346.851L262.731 347.863C263.405 348.313 264.29 348.681 265.218 348.65C266.184 348.617 267.121 348.154 267.833 347.086L266.821 346.411ZM263.406 346.851C257.919 343.193 257.3 342.826 251.665 339.568L251.056 340.621C256.671 343.868 257.268 344.221 262.731 347.863L263.406 346.851ZM251.665 339.568C239.064 332.282 226.935 323.985 214.902 315.638L214.209 316.638C226.241 324.984 238.406 333.307 251.056 340.621L251.665 339.568ZM214.902 315.638C214.067 315.059 213.472 314.438 213.05 313.725C212.626 313.009 212.358 312.17 212.214 311.127L211.008 311.294C211.168 312.453 211.477 313.457 212.003 314.345C212.53 315.234 213.256 315.977 214.208 316.638L214.902 315.638ZM212.214 311.127C210.862 301.364 209.304 291.621 207.711 281.128L206.508 281.31C208.103 291.817 209.659 301.541 211.008 311.294L212.214 311.127ZM206.749 281.709C215.093 287.843 222.826 293.782 230.803 299.348L231.499 298.35C223.537 292.795 215.842 286.884 207.469 280.729L206.749 281.709ZM230.803 299.348C245.366 309.486 258.98 319.79 272.405 331.392L273.2 330.472C259.736 318.835 246.088 308.506 231.499 298.35L230.803 299.348ZM371.403 292.583C374.551 318.699 369.734 343.017 357.431 365.929L358.503 366.505C370.922 343.378 375.79 318.809 372.611 292.437L371.403 292.583ZM357.43 365.93C355.926 368.745 353.815 371.955 351.969 374.404L352.941 375.137C354.818 372.646 356.965 369.383 358.503 366.504L357.43 365.93ZM351.98 374.391C350.78 375.893 347.646 379.55 343.658 384.254C339.676 388.95 334.854 394.675 330.294 400.293C325.736 405.909 321.43 411.431 318.485 415.719C317.016 417.858 315.868 419.714 315.2 421.132C314.868 421.835 314.635 422.471 314.555 423.001C314.479 423.5 314.512 424.127 315.023 424.501L315.742 423.519C315.806 423.566 315.699 423.569 315.758 423.183C315.811 422.828 315.986 422.319 316.301 421.65C316.925 420.325 318.027 418.534 319.488 416.407C322.404 412.162 326.684 406.671 331.238 401.06C335.79 395.452 340.605 389.735 344.586 385.041C348.56 380.354 351.715 376.671 352.93 375.15L351.98 374.391ZM314.968 424.455C315.409 424.866 316.046 424.945 316.661 424.9C317.3 424.854 318.066 424.665 318.921 424.373C320.637 423.788 322.837 422.746 325.343 421.392C330.361 418.68 336.694 414.666 342.997 410.393C349.303 406.119 355.593 401.575 360.527 397.797C362.994 395.908 365.126 394.208 366.754 392.826C368.36 391.462 369.53 390.363 370.017 389.692L369.033 388.977C368.646 389.51 367.594 390.516 365.966 391.898C364.36 393.262 362.245 394.949 359.787 396.831C354.873 400.594 348.602 405.124 342.315 409.386C336.024 413.65 329.73 417.638 324.764 420.321C322.278 421.665 320.148 422.67 318.528 423.222C317.716 423.499 317.063 423.651 316.574 423.687C316.061 423.724 315.86 423.623 315.797 423.565L314.968 424.455ZM369.919 389.798C373.418 386.822 376.605 383.025 379.797 379.352C383.006 375.658 386.226 372.083 389.838 369.446L389.12 368.463C385.383 371.192 382.081 374.868 378.879 378.554C375.658 382.26 372.543 385.97 369.131 388.871L369.919 389.798ZM389.841 369.444C390.086 369.262 390.347 369.025 390.561 368.841C390.794 368.641 390.999 368.479 391.195 368.37C391.388 368.262 391.533 368.229 391.65 368.237C391.759 368.245 391.92 368.293 392.143 368.5L392.971 367.609C392.592 367.256 392.178 367.055 391.736 367.023C391.302 366.993 390.919 367.131 390.603 367.307C390.292 367.48 390.008 367.712 389.769 367.918C389.511 368.139 389.316 368.319 389.117 368.466L389.841 369.444ZM392.146 368.502C392.307 368.651 392.469 368.967 392.571 369.431C392.67 369.877 392.694 370.37 392.657 370.773L393.869 370.884C393.917 370.362 393.886 369.742 393.759 369.169C393.637 368.614 393.403 368.005 392.969 367.606L392.146 368.502ZM392.657 370.772C391.911 378.852 391.539 386.902 390.169 394.803L391.368 395.01C392.748 387.046 393.13 378.889 393.869 370.884L392.657 370.772ZM390.169 394.803C386.071 418.419 377.195 440.422 365.131 460.994L366.181 461.609C378.305 440.935 387.241 418.796 391.368 395.011L390.169 394.803ZM365.131 460.994C342.162 500.161 310.378 528.778 265.752 540.955L266.072 542.129C311.067 529.851 343.086 500.991 366.181 461.609L365.131 460.994ZM265.752 540.955C246.112 546.316 226.028 545.838 205.79 543.966L205.678 545.177C225.956 547.053 246.217 547.548 266.072 542.129L265.752 540.955ZM205.79 543.966C184.032 541.956 164.452 534.742 146.841 521.864L146.122 522.846C163.917 535.859 183.709 543.148 205.678 545.177L205.79 543.966ZM146.841 521.864C145.592 520.95 144.769 520.06 144.267 519.057C143.766 518.058 143.558 516.892 143.634 515.377L142.419 515.316C142.336 516.977 142.56 518.366 143.179 519.602C143.796 520.835 144.779 521.862 146.122 522.846L146.841 521.864ZM143.634 515.376C144.192 503.645 145.515 492.09 149.224 480.961L148.07 480.576C144.309 491.859 142.979 503.542 142.418 515.318L143.634 515.376ZM149.224 480.961C153.131 469.252 157.987 457.973 163.322 446.768L162.224 446.245C156.876 457.476 151.998 468.803 148.07 480.576L149.224 480.961ZM163.322 446.768C169.941 432.889 178.215 420.462 188.796 409.566L187.924 408.718C177.238 419.722 168.892 432.262 162.224 446.245L163.322 446.768ZM188.797 409.565C207.125 390.669 230.573 381.411 255.703 375.79L255.437 374.603C230.196 380.248 206.485 389.581 187.923 408.718L188.797 409.565ZM255.703 375.79C269.967 372.598 284.216 368.62 297.221 362.484L296.702 361.384C283.816 367.464 269.668 371.419 255.437 374.603L255.703 375.79ZM297.221 362.485C319.428 352.023 337.937 336.198 352.689 316.183L351.71 315.461C337.067 335.328 318.711 351.016 296.703 361.384L297.221 362.485ZM281.186 323.293C269.002 313.485 256.599 304.657 244.323 296.018C232.044 287.377 219.897 278.927 208.2 269.861L207.454 270.823C219.179 279.91 231.353 288.378 243.623 297.013C255.898 305.652 268.272 314.46 280.423 324.241L281.186 323.293ZM208.2 269.861C207.193 269.081 206.246 267.764 205.431 266.093C204.621 264.431 203.963 262.464 203.513 260.434C203.063 258.404 202.824 256.328 202.842 254.449C202.86 252.562 203.137 250.92 203.683 249.729L202.578 249.222C201.932 250.629 201.644 252.464 201.626 254.438C201.607 256.421 201.858 258.591 202.325 260.697C202.792 262.804 203.478 264.864 204.338 266.626C205.192 268.379 206.24 269.881 207.454 270.823L208.2 269.861ZM203.683 249.73C207.201 242.096 209.846 234.215 208.28 225.388L207.082 225.601C208.582 234.051 206.068 241.647 202.578 249.221L203.683 249.73ZM208.28 225.388C205.818 211.558 197.344 202.325 185.417 196.454L184.879 197.546C196.531 203.282 204.701 212.226 207.082 225.601L208.28 225.388ZM185.417 196.454C169.033 188.388 160.677 175.497 158.461 157.577L157.254 157.727C159.515 176.016 168.096 189.283 184.879 197.546L185.417 196.454ZM158.461 157.577C158.145 155.042 158.207 152.915 158.707 150.962C159.206 149.013 160.153 147.204 161.655 145.317L160.703 144.559C159.115 146.553 158.078 148.515 157.528 150.66C156.979 152.802 156.925 155.091 157.254 157.727L158.461 157.577ZM161.655 145.317C181.839 119.978 216.484 109.514 247.879 120.944L248.295 119.801C216.398 108.188 181.205 118.821 160.703 144.559L161.655 145.317ZM247.879 120.944C282.557 133.579 300.055 160.598 304.388 196.064L305.596 195.916C301.218 160.084 283.48 132.62 248.296 119.801L247.879 120.944ZM304.388 196.064C309.819 240.517 296.623 281.822 280.226 323.532L281.358 323.977C297.763 282.247 311.066 240.695 305.596 195.916L304.388 196.064ZM280.362 324.185L280.374 324.197L281.234 323.337L281.222 323.324L280.362 324.185ZM154.471 375.068C164.122 357.845 173.61 340.778 184.747 324.722L183.748 324.028C172.571 340.141 163.054 357.263 153.409 374.473L154.471 375.068ZM184.748 324.721C184.983 324.382 185.232 323.981 185.477 323.591C185.726 323.195 185.974 322.804 186.22 322.457C186.47 322.106 186.698 321.829 186.9 321.647C187.12 321.451 187.21 321.455 187.197 321.454L187.26 320.239C186.778 320.214 186.374 320.485 186.088 320.741C185.784 321.014 185.495 321.377 185.228 321.752C184.959 322.131 184.694 322.55 184.446 322.944C184.194 323.345 183.963 323.717 183.747 324.029L184.748 324.721ZM187.195 321.454C188.997 321.553 190.824 321.511 192.634 321.454C194.451 321.397 196.247 321.325 198.023 321.358C201.57 321.424 204.961 321.911 208.067 323.732L208.682 322.682C205.315 320.707 201.68 320.209 198.046 320.141C196.231 320.107 194.397 320.181 192.596 320.238C190.787 320.295 189.006 320.335 187.262 320.239L187.195 321.454ZM208.067 323.732C214.817 327.695 220.979 332.583 227.847 337.37L228.542 336.371C221.759 331.644 215.486 326.676 208.683 322.682L208.067 323.732ZM227.953 336.312C202.153 347.458 178.124 361.202 153.666 374.233L154.238 375.307C178.739 362.253 202.696 348.549 228.436 337.429L227.953 336.312ZM153.952 374.162H153.94V375.379H153.952V374.162ZM123.916 365.24C129.951 342.318 135.998 319.395 142.021 296.473L140.844 296.164C134.821 319.086 128.775 342.008 122.74 364.931L123.916 365.24ZM142.02 296.475C142.305 295.406 142.977 294.73 143.979 294.173L143.388 293.11C142.199 293.77 141.241 294.676 140.844 296.161L142.02 296.475ZM143.978 294.173C146.865 292.572 149.692 290.758 152.564 289.071C155.458 287.372 158.453 285.768 161.783 284.514L161.354 283.375C157.931 284.664 154.867 286.308 151.948 288.022C149.008 289.748 146.269 291.511 143.388 293.11L143.978 294.173ZM160.975 284.08C162.739 291.789 164.395 299.23 166.172 306.644L167.355 306.36C165.58 298.955 163.927 291.527 162.162 283.809L160.975 284.08ZM166.172 306.645C166.752 309.041 165.911 310.781 164.343 312.727L165.291 313.49C166.959 311.421 168.065 309.292 167.355 306.359L166.172 306.645ZM164.342 312.728C159.034 319.351 153.836 326.059 148.629 332.749L149.59 333.497C154.798 326.803 159.99 320.104 165.292 313.489L164.342 312.728ZM191.923 261.258C193.615 267.344 195.074 272.536 196.509 277.743L197.682 277.42C196.246 272.212 194.786 267.013 193.095 260.932L191.923 261.258ZM196.509 277.742C196.629 278.179 196.71 278.541 196.737 278.843C196.763 279.146 196.729 279.335 196.67 279.457C196.58 279.643 196.279 279.943 195.022 279.978L195.057 281.195C196.379 281.157 197.35 280.842 197.765 279.988C197.958 279.59 197.985 279.152 197.949 278.737C197.912 278.321 197.806 277.872 197.683 277.42L196.509 277.742ZM195.021 279.978C187.355 280.21 179.703 280.722 172.063 281.245L172.147 282.459C179.788 281.935 187.418 281.425 195.058 281.195L195.021 279.978ZM172.062 281.245C171.261 281.301 170.703 281.315 170.271 281.166C169.907 281.04 169.571 280.774 169.305 280.058L168.165 280.482C168.531 281.47 169.102 282.049 169.875 282.316C170.58 282.559 171.392 282.512 172.148 282.459L172.062 281.245ZM169.305 280.059C169.14 279.614 169.136 279.331 169.176 279.152C169.214 278.981 169.307 278.838 169.474 278.695C169.651 278.543 169.889 278.409 170.189 278.262C170.463 278.127 170.824 277.966 171.124 277.789L170.507 276.741C170.259 276.886 169.99 277.004 169.652 277.17C169.34 277.323 168.982 277.513 168.68 277.773C168.367 278.042 168.098 278.4 167.989 278.886C167.882 279.363 167.946 279.892 168.164 280.482L169.305 280.059ZM171.126 277.788C178.644 273.319 185.327 267.712 192.892 261.58L192.126 260.635C184.531 266.791 177.928 272.329 170.504 276.742L171.126 277.788ZM193.117 261.107V261.095H191.901V261.107H193.117ZM372.611 292.439C372.398 290.631 372.678 288.177 370.45 285.955L369.59 286.817C371.433 288.654 371.155 290.476 371.403 292.581L372.611 292.439ZM369.475 286.115C364.307 296.512 358.498 306.248 351.71 315.461L352.689 316.183C359.524 306.906 365.369 297.108 370.565 286.657L369.475 286.115ZM122.99 365.592C123.102 365.666 123.217 365.74 123.327 365.812C123.439 365.885 123.547 365.955 123.652 366.025L124.326 365.012C124.214 364.937 124.1 364.863 123.989 364.791C123.878 364.719 123.77 364.649 123.665 364.579L122.99 365.592ZM124.47 365.891C132.84 355.1 141.208 344.286 149.59 333.496L148.629 332.75C140.247 343.54 131.877 354.356 123.508 365.145L124.47 365.891ZM386.328 348.076H385.111L387.505 348.383L386.328 348.076ZM391.584 324.631L392.79 324.793L392.79 324.792L391.584 324.631ZM382.556 254.452L381.414 254.872L381.415 254.874L382.556 254.452ZM379.952 249.001L380.98 248.35L380.977 248.346L379.952 249.001ZM364.087 248.709L363.076 248.032L363.074 248.034L364.087 248.709ZM359.792 258.017L358.649 257.6L358.649 257.6L359.792 258.017ZM324.423 317.318L325.285 318.176L325.286 318.176L324.423 317.318ZM295.307 340.168L294.127 339.874L293.406 342.764L295.944 341.204L295.307 340.168ZM303.666 319.776L302.565 319.258L302.565 319.258L303.666 319.776ZM324.544 243.417L323.338 243.254L323.338 243.254L324.544 243.417ZM322.111 177.18L320.936 177.497L320.936 177.497L322.111 177.18ZM246.931 98.9469L247.221 97.7651L247.22 97.765L246.931 98.9469ZM142.612 133.537L141.693 132.741L141.692 132.741L142.612 133.537ZM120.262 160.67L119.34 159.876L119.339 159.877L120.262 160.67ZM73.6505 193.398L74.0963 194.531L74.0978 194.53L73.6505 193.398ZM56.9697 195.382L56.9788 196.598L56.9802 196.598L56.9697 195.382ZM42.6614 197.304L43.1235 198.43L43.1236 198.43L42.6614 197.304ZM36.8456 232.028L37.7299 231.193L37.7298 231.193L36.8456 232.028ZM76.4975 250.145L76.6921 248.944L76.6918 248.944L76.4975 250.145ZM128.754 242.833L129.054 244.012L129.054 244.012L128.754 242.833ZM177.312 230.045L177.623 231.222L177.624 231.221L177.312 230.045ZM185.756 230.301L184.787 231.035L184.788 231.037L185.756 230.301ZM183.651 238.1L182.581 237.522L182.58 237.523L183.651 238.1ZM166.727 255.085L167.406 256.094L167.407 256.094L166.727 255.085ZM114.969 289.87L115.741 290.81L115.741 290.81L114.969 289.87ZM58.5392 386.864L59.747 387.012L58.5392 386.864ZM98.0938 509.202L97.1817 510.008H97.1817L98.0938 509.202ZM172.361 558.673L172.723 557.511L172.723 557.511L172.361 558.673ZM329.362 532.247L330.095 533.218L330.095 533.218L329.362 532.247ZM411.586 385.319L412.792 385.48V385.48L411.586 385.319ZM412.146 353.843L410.94 354.006L410.94 354.007L412.146 353.843ZM392.423 345.217L391.714 344.228L391.713 344.229L392.423 345.217ZM387.885 348.198L387.248 347.161L387.245 347.163L387.885 348.198ZM386.328 348.064L386.45 346.854L385.111 346.718V348.064H386.328ZM370.012 286.378V285.161H367.062L369.154 287.241L370.012 286.378ZM370.024 286.378L371.114 286.919L371.988 285.161H370.024V286.378ZM123.997 365.524V366.74H128.016L124.672 364.511L123.997 365.524ZM123.985 365.524L123.023 364.779L121.504 366.74H123.985V365.524ZM370.02 286.386L369.161 287.248L370.357 288.441L371.109 286.928L370.02 286.386ZM123.989 365.518L124.663 364.505L123.721 363.878L123.027 364.773L123.989 365.518ZM387.505 348.383C389.528 340.619 391.707 332.854 392.79 324.793L390.378 324.469C389.32 332.346 387.191 339.936 385.15 347.769L387.505 348.383ZM392.79 324.792C396.058 300.305 392.133 276.863 383.697 254.03L381.415 254.874C389.745 277.423 393.582 300.459 390.378 324.47L392.79 324.792ZM383.698 254.032C382.986 252.097 382.112 250.138 380.98 248.35L378.924 249.652C379.934 251.247 380.739 253.035 381.414 254.872L383.698 254.032ZM380.977 248.346C378.724 244.821 375.495 242.856 372.106 242.78C368.709 242.703 365.422 244.53 363.076 248.032L365.097 249.386C367.071 246.44 369.635 245.158 372.051 245.212C374.475 245.267 377.02 246.672 378.927 249.657L380.977 248.346ZM363.074 248.034C361.109 250.982 359.813 254.411 358.649 257.6L360.935 258.434C362.107 255.223 363.317 252.057 365.099 249.384L363.074 248.034ZM358.649 257.6C350.652 279.53 340.095 299.804 323.559 316.461L325.286 318.176C342.16 301.179 352.871 280.548 360.935 258.434L358.649 257.6ZM323.56 316.46C315.091 324.977 305.702 332.352 294.67 339.131L295.944 341.204C307.129 334.332 316.672 326.839 325.285 318.176L323.56 316.46ZM296.488 340.462C298.385 332.85 301.809 326.579 304.767 320.294L302.565 319.258C299.682 325.384 296.098 331.961 294.127 339.874L296.488 340.462ZM304.766 320.294C316.3 295.807 322.188 270.001 325.75 243.579L323.338 243.254C319.795 269.539 313.954 295.077 302.565 319.258L304.766 320.294ZM325.75 243.579C328.754 221.315 329.208 198.785 323.285 176.863L320.936 177.497C326.742 198.986 326.32 221.157 323.338 243.254L325.75 243.579ZM323.285 176.863C312.514 136.93 288.866 107.955 247.221 97.7651L246.642 100.129C287.245 110.063 310.342 138.223 320.936 177.497L323.285 176.863ZM247.22 97.765C226.25 92.6375 206.904 93.2278 189.258 99.2028C171.616 105.176 155.75 116.506 141.693 132.741L143.532 134.334C157.361 118.363 172.879 107.318 190.038 101.508C207.193 95.699 226.063 95.0969 246.642 100.129L247.22 97.765ZM141.692 132.741C137.843 137.189 134.153 141.768 130.48 146.331C126.803 150.9 123.145 155.453 119.34 159.876L121.184 161.463C125.02 157.004 128.704 152.419 132.376 147.857C136.052 143.289 139.716 138.743 143.532 134.334L141.692 132.741ZM119.339 159.877C106.739 174.546 91.2247 185.143 73.2032 192.267L74.0978 194.53C92.4553 187.273 108.307 176.456 121.185 161.462L119.339 159.877ZM73.2047 192.266C67.9644 194.33 62.6748 194.116 56.9591 194.165L56.9802 196.598C62.5068 196.55 68.3377 196.798 74.0963 194.531L73.2047 192.266ZM56.9605 194.165C52.1536 194.201 47.0174 194.2 42.1992 196.179L43.1236 198.43C47.4306 196.661 52.0766 196.635 56.9788 196.598L56.9605 194.165ZM42.1993 196.179C27.4293 202.242 24.3014 220.53 35.9615 232.864L37.7298 231.193C27.0757 219.923 30.153 203.754 43.1235 198.43L42.1993 196.179ZM35.9613 232.864C46.8945 244.434 61.2454 248.91 76.3032 251.346L76.6918 248.944C61.8191 246.538 48.1132 242.18 37.7299 231.193L35.9613 232.864ZM76.303 251.346C94.8715 254.354 112.074 248.329 129.054 244.012L128.455 241.653C111.172 246.048 94.6243 251.849 76.6921 248.944L76.303 251.346ZM129.054 244.012C145.279 239.885 161.453 235.489 177.623 231.222L177.002 228.869C160.808 233.143 144.666 237.531 128.454 241.653L129.054 244.012ZM177.624 231.221C179.162 230.814 180.668 230.336 182.057 230.212C183.423 230.091 184.27 230.354 184.787 231.035L186.726 229.566C185.454 227.887 183.526 227.639 181.842 227.788C180.181 227.936 178.358 228.51 177.001 228.869L177.624 231.221ZM184.788 231.037C185.161 231.529 185.194 232.295 184.666 233.603C184.14 234.905 183.313 236.165 182.581 237.522L184.722 238.677C185.316 237.576 186.332 235.977 186.922 234.514C187.511 233.057 187.933 231.153 186.725 229.564L184.788 231.037ZM182.58 237.523C178.781 244.583 172.776 249.545 166.048 254.075L167.407 256.094C174.232 251.499 180.638 246.266 184.723 238.676L182.58 237.523ZM166.048 254.075C148.934 265.589 130.382 275.637 114.197 288.93L115.741 290.81C131.823 277.603 150.015 267.795 167.406 256.094L166.048 254.075ZM114.197 288.93C83.1788 314.403 62.2803 346.132 57.3315 386.717L59.747 387.012C64.6046 347.174 85.0979 315.975 115.741 290.81L114.197 288.93ZM57.3315 386.717C51.5913 433.791 66.1798 474.89 97.1817 510.008L99.0059 508.397C68.419 473.75 54.0989 433.33 59.747 387.012L57.3315 386.717ZM97.1817 510.008C117.564 533.096 142.397 550.609 171.999 559.835L172.723 557.511C143.606 548.438 119.139 531.202 99.0059 508.397L97.1817 510.008ZM171.998 559.835C228.921 577.576 282.124 569.392 330.095 533.218L328.63 531.275C281.31 566.958 228.928 575.029 172.723 557.511L171.998 559.835ZM330.095 533.218C379.232 496.151 404.762 445.538 412.792 385.48L410.38 385.158C402.423 444.676 377.168 494.66 328.63 531.275L330.095 533.218ZM412.792 385.48C414.187 375.045 414.795 364.341 413.352 353.68L410.94 354.007C412.344 364.37 411.76 374.836 410.38 385.158L412.792 385.48ZM413.352 353.68C412.463 347.109 410.044 342.519 406.043 340.773C402.037 339.025 397.059 340.394 391.714 344.228L393.133 346.206C398.251 342.533 402.265 341.779 405.069 343.003C407.878 344.229 410.088 347.705 410.94 354.006L413.352 353.68ZM391.713 344.229C390.275 345.263 388.782 346.219 387.248 347.161L388.522 349.235C390.078 348.279 391.627 347.288 393.134 346.205L391.713 344.229ZM387.245 347.163C387.432 347.048 387.595 347.04 387.632 347.039C387.658 347.039 387.642 347.042 387.528 347.022C387.348 346.992 386.923 346.901 386.45 346.854L386.205 349.275C386.572 349.312 386.798 349.367 387.123 349.422C387.261 349.445 387.461 349.476 387.672 349.472C387.893 349.469 388.211 349.427 388.525 349.232L387.245 347.163ZM385.111 348.064V348.076H387.544V348.064H385.111ZM370.024 285.161H370.012V287.595H370.024V285.161ZM123.985 366.74H123.997V364.307H123.985V366.74ZM371.109 286.928C371.109 286.928 371.109 286.928 371.11 286.927C371.11 286.927 371.11 286.927 371.11 286.926C371.111 286.925 371.112 286.922 371.114 286.919L368.935 285.836C368.935 285.836 368.935 285.836 368.934 285.837C368.934 285.837 368.934 285.837 368.934 285.838C368.933 285.839 368.932 285.842 368.93 285.844L371.109 286.928ZM369.154 287.241C369.156 287.243 369.155 287.242 369.161 287.248L370.879 285.524C370.878 285.524 370.878 285.523 370.876 285.521C370.874 285.52 370.872 285.517 370.87 285.515L369.154 287.241ZM123.027 364.773L123.023 364.779L124.947 366.268L124.951 366.263L123.027 364.773ZM124.672 364.511C124.67 364.51 124.666 364.507 124.663 364.505L123.315 366.531C123.317 366.533 123.319 366.534 123.322 366.536L124.672 364.511Z" fill="#7D3D38" mask="url(#path-1-outside-1_4010_11088)"/>
<path d="M386.328 348.076C388.359 340.277 390.513 332.6 391.584 324.631C394.82 300.382 390.939 277.143 382.556 254.452C381.862 252.566 381.023 250.692 379.952 249.001C375.791 242.492 368.406 242.261 364.087 248.709C362.213 251.52 360.96 254.817 359.792 258.017C351.762 280.039 341.128 300.491 324.422 317.318C315.881 325.908 306.415 333.342 295.307 340.168C297.242 332.405 300.746 325.981 303.666 319.776C315.127 295.442 320.991 269.77 324.544 243.417C327.537 221.236 327.975 198.886 322.111 177.18C311.428 137.577 288.056 109.009 246.931 98.9469C205.381 88.7875 170.499 101.332 142.612 133.537C134.947 142.395 127.903 151.788 120.262 160.67C107.523 175.501 91.84 186.208 73.6505 193.398C68.151 195.564 62.5908 195.333 56.9697 195.382C52.1151 195.418 47.224 195.43 42.6614 197.304C28.7911 202.998 25.6886 220.226 36.8456 232.028C47.5038 243.307 61.5322 247.724 76.4975 250.145C94.7479 253.101 111.623 247.188 128.754 242.833C144.973 238.708 161.13 234.316 177.312 230.045C180.208 229.279 183.968 227.94 185.756 230.301C187.338 232.381 184.978 235.642 183.651 238.1C179.709 245.424 173.504 250.522 166.727 255.085C149.475 266.692 131.103 276.62 114.969 289.87C84.1383 315.189 63.4425 346.653 58.5392 386.864C52.8451 433.561 67.2994 474.32 98.0938 509.202C118.352 532.149 143.002 549.523 172.361 558.673C228.924 576.303 281.717 568.175 329.362 532.246C378.2 495.405 403.592 445.107 411.586 385.319C412.973 374.941 413.569 364.356 412.146 353.843C410.406 340.971 402.887 337.71 392.423 345.217C390.951 346.276 389.43 347.249 387.885 348.198C387.629 348.356 387.167 348.149 386.328 348.064V348.076ZM110.066 195.808C110.492 195.321 111.165 194.541 111.591 194.054C124.451 183.846 137.113 173.956 147.516 160.219C150.351 183.714 162.87 199.677 184.041 209.483C179.758 211.235 176.327 212.245 172.847 213.012C146.056 218.949 119.654 226.687 92.5092 231.079C79.5028 233.184 67.3602 230.897 56.3491 223.451C50.7645 219.679 50.2414 215.834 54.6458 211.442C57.8092 209.799 61.2889 210.237 64.647 209.86C70.7304 209.179 76.826 208.522 82.8851 207.707C92.5578 206.405 100.637 201.21 108.995 196.732C109.348 196.416 109.701 196.112 110.054 195.795L110.066 195.808ZM272.802 330.932C274.627 332.149 274.349 333.313 274.019 333.974C271.062 339.887 270.466 340.921 267.327 346.749C266.111 348.574 264.285 348.168 263.069 347.357C257.594 343.707 256.985 343.347 251.36 340.095C238.735 332.795 226.588 324.485 214.555 316.138C212.767 314.897 211.915 313.413 211.611 311.21C210.26 301.453 208.703 291.719 207.109 281.219C215.468 287.363 223.182 293.289 231.151 298.849C245.727 308.996 259.358 319.312 272.802 330.932ZM370.012 286.378L370.02 286.386C372.055 288.415 371.776 290.554 372.007 292.51C375.171 318.754 370.328 343.197 357.967 366.217C356.446 369.064 354.316 372.3 352.455 374.77C347.625 380.817 311.805 421.394 315.382 424.01C319.42 427.772 366.027 394.153 369.525 389.334C376.436 383.458 382.13 374.32 389.479 368.955C390.367 368.298 391.353 366.935 392.557 368.054C393.153 368.602 393.348 369.904 393.263 370.828C392.521 378.871 392.143 386.974 390.769 394.907C386.656 418.608 377.75 440.678 365.656 461.301C342.624 500.576 310.723 529.314 265.912 541.542C246.165 546.932 225.992 546.445 205.734 544.572C183.87 542.552 164.184 535.3 146.482 522.355C143.89 520.457 142.868 518.522 143.026 515.347C143.586 503.593 144.912 491.974 148.647 480.768C152.565 469.027 157.432 457.724 162.773 446.506C169.416 432.575 177.726 420.092 188.36 409.142C206.805 390.125 230.384 380.829 255.57 375.196C269.817 372.008 284.016 368.042 296.962 361.934C319.069 351.519 337.502 335.763 352.2 315.822C359.011 306.577 364.838 296.81 370.02 286.386L370.024 286.378H370.012ZM280.804 323.767C256.47 304.178 231.248 288.495 207.827 270.342C203.386 266.899 200.746 254.671 203.131 249.476C206.635 241.871 209.214 234.133 207.681 225.495C205.26 211.892 196.938 202.803 185.148 197C168.564 188.836 160.096 175.756 157.858 157.652C157.213 152.481 158.089 148.819 161.179 144.938C181.522 119.399 216.441 108.851 248.087 120.373C283.018 133.099 300.636 160.341 304.992 195.99C310.443 240.606 297.193 282.034 280.792 323.755L280.804 323.767ZM153.94 374.77C163.588 357.554 173.091 340.46 184.248 324.375C185.148 323.073 186.292 320.798 187.228 320.847C194.322 321.236 201.902 319.411 208.375 323.207C215.151 327.186 221.369 332.113 228.194 336.87C202.425 348.003 178.432 361.727 153.952 374.77H153.94ZM123.997 365.524L123.989 365.518C123.772 365.374 123.544 365.23 123.328 365.086C129.363 342.163 135.41 319.241 141.432 296.318C141.773 295.041 142.588 294.25 143.683 293.642C149.45 290.442 154.816 286.487 161.568 283.945C163.333 291.658 164.987 299.092 166.764 306.502C167.409 309.166 166.435 311.101 164.817 313.109C159.512 319.727 154.317 326.431 149.11 333.123C140.728 343.913 132.359 354.728 123.989 365.518L123.985 365.524H123.997ZM192.509 261.095C194.2 267.179 195.66 272.374 197.096 277.581C197.582 279.358 197.619 280.513 195.04 280.586C187.387 280.818 179.746 281.329 172.105 281.852C170.548 281.961 169.367 281.973 168.735 280.27C167.968 278.202 169.72 277.91 170.815 277.265C178.286 272.824 184.929 267.252 192.509 261.107V261.095Z" fill="black" fill-opacity="0.1"/>
<path d="M280.804 323.767C256.47 304.178 231.248 288.495 207.827 270.342C203.386 266.899 200.746 254.671 203.131 249.476C206.635 241.871 209.214 234.133 207.681 225.495C205.26 211.892 196.938 202.803 185.148 197C168.564 188.836 160.096 175.756 157.858 157.652C157.213 152.481 158.089 148.819 161.179 144.938C181.522 119.399 216.441 108.851 248.087 120.373C283.018 133.099 300.636 160.341 304.992 195.99C310.443 240.606 297.193 282.034 280.792 323.755L280.804 323.767Z" fill="url(#paint0_linear_4010_11088)"/>
<path d="M372.007 292.51C371.776 290.554 372.055 288.415 370.02 286.386C364.838 296.81 359.011 306.577 352.2 315.822C337.502 335.763 319.069 351.519 296.962 361.934C284.016 368.042 269.817 372.008 255.57 375.196C230.384 380.829 206.805 390.125 188.36 409.142C177.726 420.092 169.416 432.575 162.773 446.506C157.432 457.724 152.565 469.027 148.647 480.768C144.912 491.974 143.586 503.593 143.026 515.347C142.868 518.522 143.89 520.457 146.482 522.355C164.184 535.3 183.87 542.552 205.734 544.572C225.992 546.445 246.165 546.932 265.912 541.542C310.723 529.314 342.624 500.576 365.656 461.301C377.75 440.678 386.656 418.608 390.769 394.907C392.143 386.974 392.521 378.871 393.263 370.828C393.348 369.904 393.153 368.602 392.557 368.054C391.353 366.935 390.367 368.298 389.479 368.955C382.13 374.32 376.436 383.458 369.525 389.334C366.027 394.153 319.42 427.772 315.382 424.01C311.805 421.394 347.625 380.817 352.455 374.77C354.316 372.3 356.446 369.064 357.967 366.217C370.328 343.197 375.171 318.754 372.007 292.51Z" fill="url(#paint1_linear_4010_11088)"/>
<path d="M272.802 330.932C274.627 332.149 274.349 333.313 274.019 333.974C271.062 339.887 270.466 340.921 267.327 346.749C266.111 348.574 264.285 348.168 263.069 347.357C257.594 343.707 256.985 343.347 251.36 340.095C238.735 332.795 226.588 324.485 214.555 316.138C212.767 314.897 211.915 313.413 211.611 311.21C210.26 301.453 208.703 291.719 207.109 281.219C215.468 287.363 223.182 293.289 231.151 298.849C245.727 308.996 259.358 319.312 272.802 330.932Z" fill="url(#paint2_linear_4010_11088)"/>
<path d="M153.94 374.77C163.588 357.554 173.091 340.46 184.248 324.375C185.148 323.073 186.292 320.798 187.228 320.847C194.322 321.236 201.902 319.411 208.375 323.207C215.151 327.186 221.369 332.113 228.194 336.87C202.425 348.003 178.432 361.727 153.952 374.77H153.94Z" fill="url(#paint3_linear_4010_11088)"/>
<path d="M123.328 365.086C123.544 365.23 123.772 365.374 123.989 365.518C132.359 354.728 140.728 343.913 149.11 333.123C154.317 326.431 159.512 319.727 164.817 313.109C166.435 311.101 167.409 309.166 166.764 306.502C164.987 299.092 163.333 291.658 161.568 283.945C154.816 286.487 149.45 290.442 143.683 293.642C142.588 294.25 141.773 295.041 141.432 296.318C135.41 319.241 129.363 342.163 123.328 365.086Z" fill="url(#paint4_linear_4010_11088)"/>
<path d="M192.509 261.095C194.2 267.179 195.66 272.374 197.096 277.581C197.582 279.358 197.619 280.513 195.04 280.586C187.387 280.818 179.746 281.329 172.105 281.852C170.548 281.961 169.367 281.973 168.735 280.27C167.968 278.202 169.72 277.91 170.815 277.265C178.286 272.824 184.929 267.252 192.509 261.107V261.095Z" fill="url(#paint5_linear_4010_11088)"/>
<path d="M110.066 195.808C110.492 195.321 111.165 194.541 111.591 194.054C124.451 183.846 137.113 173.956 147.516 160.219C150.351 183.714 162.87 199.677 184.041 209.483C179.758 211.235 176.327 212.245 172.847 213.012C146.056 218.949 119.654 226.687 92.5092 231.079C79.5028 233.184 67.3602 230.897 56.3491 223.451C50.7645 219.679 50.2414 215.834 54.6458 211.442C57.8092 209.799 61.2889 210.237 64.647 209.86C70.7304 209.179 76.826 208.522 82.8851 207.707C92.5578 206.405 100.637 201.21 108.995 196.732C109.348 196.416 109.701 196.112 110.054 195.795L110.066 195.808Z" fill="url(#paint6_linear_4010_11088)"/>
<mask id="path-4-outside-2_4010_11088" maskUnits="userSpaceOnUse" x="552.254" y="145.073" width="1072" height="387" fill="black">
<rect fill="white" x="552.254" y="145.073" width="1072" height="387"/>
<path d="M714.767 168.699C767.901 168.699 808.523 183.44 836.633 212.921C865.086 242.401 879.312 284.223 879.312 338.386C879.312 392.549 865.086 434.37 836.633 463.851C808.523 493.332 767.901 508.073 714.767 508.073H570.79V168.699H714.767ZM706.026 441.226C734.821 441.226 755.732 432.656 768.758 415.516C782.128 398.033 788.812 372.323 788.812 338.386C788.812 304.449 782.128 278.91 768.758 261.77C755.732 244.287 734.821 235.545 706.026 235.545H659.233V441.226H706.026ZM1236.57 168.699V369.752C1236.57 417.745 1223.71 453.739 1198 477.735C1172.63 501.388 1134.93 513.215 1084.88 513.215C1035.17 513.215 997.462 501.388 971.752 477.735C946.042 453.739 933.187 417.745 933.187 369.752V168.699H1022.14V371.295C1022.14 395.634 1027.29 413.802 1037.57 425.8C1048.2 437.798 1063.97 443.797 1084.88 443.797C1106.13 443.797 1121.9 437.798 1132.18 425.8C1142.81 413.802 1148.12 395.634 1148.12 371.295V168.699H1236.57ZM1605.74 410.888C1599.23 434.542 1588.77 454.081 1574.38 469.508C1559.98 484.591 1542.84 495.732 1522.96 502.931C1503.07 509.787 1481.14 513.215 1457.14 513.215C1422.86 513.215 1393.21 506.359 1368.18 492.647C1343.16 478.592 1323.96 458.538 1310.59 432.485C1297.22 406.432 1290.54 375.066 1290.54 338.386C1290.54 301.706 1297.22 270.34 1310.59 244.287C1323.96 218.234 1343.16 198.351 1368.18 184.639C1393.21 170.585 1422.69 163.557 1456.62 163.557C1480.28 163.557 1502.05 166.985 1521.93 173.841C1541.81 180.354 1558.61 190.467 1572.32 204.179C1586.03 217.891 1595.8 235.545 1601.63 257.142L1523.99 288.508C1519.19 267.255 1511.3 252.686 1500.33 244.801C1489.71 236.917 1476.16 232.974 1459.71 232.974C1443.6 232.974 1429.54 236.917 1417.55 244.801C1405.89 252.686 1396.81 264.512 1390.29 280.281C1384.12 295.707 1381.04 315.075 1381.04 338.386C1381.04 361.354 1383.95 380.722 1389.78 396.491C1395.61 412.26 1404.35 424.086 1416 431.971C1428 439.855 1442.74 443.797 1460.22 443.797C1476.68 443.797 1490.56 439.341 1501.87 430.428C1513.53 421.173 1521.41 407.118 1525.53 388.264L1605.74 410.888Z"/>
</mask>
<path d="M714.767 168.699C767.901 168.699 808.523 183.44 836.633 212.921C865.086 242.401 879.312 284.223 879.312 338.386C879.312 392.549 865.086 434.37 836.633 463.851C808.523 493.332 767.901 508.073 714.767 508.073H570.79V168.699H714.767ZM706.026 441.226C734.821 441.226 755.732 432.656 768.758 415.516C782.128 398.033 788.812 372.323 788.812 338.386C788.812 304.449 782.128 278.91 768.758 261.77C755.732 244.287 734.821 235.545 706.026 235.545H659.233V441.226H706.026ZM1236.57 168.699V369.752C1236.57 417.745 1223.71 453.739 1198 477.735C1172.63 501.388 1134.93 513.215 1084.88 513.215C1035.17 513.215 997.462 501.388 971.752 477.735C946.042 453.739 933.187 417.745 933.187 369.752V168.699H1022.14V371.295C1022.14 395.634 1027.29 413.802 1037.57 425.8C1048.2 437.798 1063.97 443.797 1084.88 443.797C1106.13 443.797 1121.9 437.798 1132.18 425.8C1142.81 413.802 1148.12 395.634 1148.12 371.295V168.699H1236.57ZM1605.74 410.888C1599.23 434.542 1588.77 454.081 1574.38 469.508C1559.98 484.591 1542.84 495.732 1522.96 502.931C1503.07 509.787 1481.14 513.215 1457.14 513.215C1422.86 513.215 1393.21 506.359 1368.18 492.647C1343.16 478.592 1323.96 458.538 1310.59 432.485C1297.22 406.432 1290.54 375.066 1290.54 338.386C1290.54 301.706 1297.22 270.34 1310.59 244.287C1323.96 218.234 1343.16 198.351 1368.18 184.639C1393.21 170.585 1422.69 163.557 1456.62 163.557C1480.28 163.557 1502.05 166.985 1521.93 173.841C1541.81 180.354 1558.61 190.467 1572.32 204.179C1586.03 217.891 1595.8 235.545 1601.63 257.142L1523.99 288.508C1519.19 267.255 1511.3 252.686 1500.33 244.801C1489.71 236.917 1476.16 232.974 1459.71 232.974C1443.6 232.974 1429.54 236.917 1417.55 244.801C1405.89 252.686 1396.81 264.512 1390.29 280.281C1384.12 295.707 1381.04 315.075 1381.04 338.386C1381.04 361.354 1383.95 380.722 1389.78 396.491C1395.61 412.26 1404.35 424.086 1416 431.971C1428 439.855 1442.74 443.797 1460.22 443.797C1476.68 443.797 1490.56 439.341 1501.87 430.428C1513.53 421.173 1521.41 407.118 1525.53 388.264L1605.74 410.888Z" fill="url(#paint7_linear_4010_11088)"/>
<path d="M836.633 212.921L823.606 225.342C823.631 225.368 823.656 225.394 823.681 225.421L836.633 212.921ZM836.633 463.851L823.681 451.351C823.656 451.377 823.631 451.404 823.606 451.43L836.633 463.851ZM570.79 508.073H552.79C552.79 518.014 560.849 526.073 570.79 526.073V508.073ZM570.79 168.699V150.699C560.849 150.699 552.79 158.758 552.79 168.699H570.79ZM768.758 415.516L754.46 404.582C754.449 404.596 754.438 404.611 754.427 404.625L768.758 415.516ZM768.758 261.77L754.325 272.524C754.404 272.631 754.484 272.736 754.565 272.84L768.758 261.77ZM659.233 235.545V217.545C649.292 217.545 641.233 225.604 641.233 235.545H659.233ZM659.233 441.226H641.233C641.233 451.168 649.292 459.226 659.233 459.226V441.226ZM714.767 186.699C764.551 186.699 799.843 200.42 823.606 225.342L849.66 200.499C817.203 166.459 771.252 150.699 714.767 150.699V186.699ZM823.681 225.421C847.96 250.577 861.312 287.339 861.312 338.386H897.312C897.312 281.107 882.211 234.226 849.585 200.421L823.681 225.421ZM861.312 338.386C861.312 389.433 847.96 426.195 823.681 451.351L849.585 476.351C882.211 442.546 897.312 395.665 897.312 338.386H861.312ZM823.606 451.43C799.843 476.352 764.551 490.073 714.767 490.073V526.073C771.252 526.073 817.203 510.313 849.66 476.273L823.606 451.43ZM714.767 490.073H570.79V526.073H714.767V490.073ZM588.79 508.073V168.699H552.79V508.073H588.79ZM570.79 186.699H714.767V150.699H570.79V186.699ZM706.026 459.226C738.394 459.226 765.584 449.441 783.089 426.408L754.427 404.625C745.879 415.872 731.248 423.226 706.026 423.226V459.226ZM783.057 426.45C799.817 404.533 806.812 374.257 806.812 338.386H770.812C770.812 370.389 764.438 391.534 754.46 404.582L783.057 426.45ZM806.812 338.386C806.812 302.553 799.832 272.341 782.951 250.699L754.565 272.84C764.423 285.478 770.812 306.344 770.812 338.386H806.812ZM783.192 251.015C765.735 227.586 738.52 217.545 706.026 217.545V253.545C731.122 253.545 745.729 260.988 754.325 272.524L783.192 251.015ZM706.026 217.545H659.233V253.545H706.026V217.545ZM641.233 235.545V441.226H677.233V235.545H641.233ZM659.233 459.226H706.026V423.226H659.233V459.226ZM1236.57 168.699H1254.57C1254.57 158.758 1246.51 150.699 1236.57 150.699V168.699ZM1198 477.735L1210.28 490.9L1210.28 490.894L1198 477.735ZM971.752 477.735L959.47 490.894C959.502 490.923 959.533 490.952 959.565 490.982L971.752 477.735ZM933.187 168.699V150.699C923.246 150.699 915.187 158.758 915.187 168.699H933.187ZM1022.14 168.699H1040.14C1040.14 158.758 1032.08 150.699 1022.14 150.699V168.699ZM1037.57 425.8L1023.9 437.515C1023.97 437.589 1024.03 437.662 1024.1 437.735L1037.57 425.8ZM1132.18 425.8L1118.71 413.866C1118.64 413.939 1118.58 414.012 1118.52 414.086L1132.18 425.8ZM1148.12 168.699V150.699C1138.18 150.699 1130.12 158.758 1130.12 168.699H1148.12ZM1218.57 168.699V369.752H1254.57V168.699H1218.57ZM1218.57 369.752C1218.57 414.64 1206.6 445.086 1185.72 464.576L1210.28 490.894C1240.82 462.392 1254.57 420.849 1254.57 369.752H1218.57ZM1185.73 464.57C1164.91 483.976 1132.37 495.215 1084.88 495.215V531.215C1137.48 531.215 1180.35 518.8 1210.28 490.9L1185.73 464.57ZM1084.88 495.215C1037.78 495.215 1005.15 484.004 983.939 464.488L959.565 490.982C989.773 518.773 1032.56 531.215 1084.88 531.215V495.215ZM984.034 464.576C963.151 445.086 951.187 414.64 951.187 369.752H915.187C915.187 420.849 928.932 462.392 959.47 490.894L984.034 464.576ZM951.187 369.752V168.699H915.187V369.752H951.187ZM933.187 186.699H1022.14V150.699H933.187V186.699ZM1004.14 168.699V371.295H1040.14V168.699H1004.14ZM1004.14 371.295C1004.14 397.711 1009.66 420.892 1023.9 437.515L1051.24 414.086C1044.92 406.712 1040.14 393.557 1040.14 371.295H1004.14ZM1024.1 437.735C1039.11 454.683 1060.48 461.797 1084.88 461.797V425.797C1067.45 425.797 1057.29 420.913 1051.04 413.866L1024.1 437.735ZM1084.88 461.797C1109.47 461.797 1131.07 454.757 1145.85 437.515L1118.52 414.086C1112.73 420.84 1102.79 425.797 1084.88 425.797V461.797ZM1145.66 437.735C1160.39 421.103 1166.12 397.828 1166.12 371.295H1130.12C1130.12 393.44 1125.23 406.501 1118.71 413.866L1145.66 437.735ZM1166.12 371.295V168.699H1130.12V371.295H1166.12ZM1148.12 186.699H1236.57V150.699H1148.12V186.699ZM1605.74 410.888L1623.1 415.667C1625.73 406.125 1620.16 396.251 1610.63 393.564L1605.74 410.888ZM1574.38 469.508L1587.4 481.936C1587.44 481.887 1587.49 481.839 1587.54 481.789L1574.38 469.508ZM1522.96 502.931L1528.82 519.947C1528.91 519.917 1529 519.887 1529.08 519.856L1522.96 502.931ZM1368.18 492.647L1359.37 508.341C1359.42 508.372 1359.48 508.402 1359.53 508.432L1368.18 492.647ZM1310.59 432.485L1326.61 424.267L1326.61 424.267L1310.59 432.485ZM1310.59 244.287L1326.61 252.505L1326.61 252.505L1310.59 244.287ZM1368.18 184.639L1376.83 200.425C1376.89 200.395 1376.94 200.364 1377 200.334L1368.18 184.639ZM1521.93 173.841L1516.06 190.858C1516.15 190.888 1516.24 190.918 1516.32 190.947L1521.93 173.841ZM1572.32 204.179L1585.05 191.451L1585.05 191.451L1572.32 204.179ZM1601.63 257.142L1608.37 273.832C1616.81 270.421 1621.38 261.243 1619.01 252.453L1601.63 257.142ZM1523.99 288.508L1506.43 292.473C1507.59 297.624 1510.96 302.005 1515.64 304.454C1520.31 306.904 1525.83 307.176 1530.73 305.198L1523.99 288.508ZM1500.33 244.801L1489.61 259.257C1489.68 259.311 1489.75 259.364 1489.83 259.417L1500.33 244.801ZM1417.55 244.801L1407.66 229.758C1407.59 229.802 1407.53 229.847 1407.46 229.892L1417.55 244.801ZM1390.29 280.281L1373.66 273.409C1373.63 273.471 1373.6 273.534 1373.58 273.596L1390.29 280.281ZM1389.78 396.491L1372.89 402.731L1372.89 402.731L1389.78 396.491ZM1416 431.971L1405.92 446.88C1405.98 446.925 1406.05 446.969 1406.12 447.013L1416 431.971ZM1501.87 430.428L1513.01 444.567C1513.03 444.553 1513.05 444.538 1513.07 444.524L1501.87 430.428ZM1525.53 388.264L1530.41 370.939C1525.64 369.593 1520.52 370.277 1516.27 372.83C1512.01 375.383 1509 379.579 1507.94 384.427L1525.53 388.264ZM1588.39 406.11C1582.52 427.417 1573.33 444.247 1561.22 457.226L1587.54 481.789C1604.22 463.916 1615.94 441.666 1623.1 415.667L1588.39 406.11ZM1561.36 457.079C1548.91 470.122 1534.14 479.74 1516.83 486.006L1529.08 519.856C1551.54 511.724 1571.05 499.059 1587.4 481.936L1561.36 457.079ZM1517.09 485.914C1499.34 492.034 1479.42 495.215 1457.14 495.215V531.215C1482.85 531.215 1506.81 527.539 1528.82 519.947L1517.09 485.914ZM1457.14 495.215C1425.28 495.215 1398.72 488.854 1376.83 476.861L1359.53 508.432C1387.69 523.863 1420.44 531.215 1457.14 531.215V495.215ZM1377 476.953C1355.12 464.666 1338.4 447.243 1326.61 424.267L1294.58 440.703C1309.53 469.833 1331.2 492.518 1359.37 508.341L1377 476.953ZM1326.61 424.267C1314.83 401.319 1308.54 372.914 1308.54 338.386H1272.54C1272.54 377.218 1279.61 411.546 1294.58 440.703L1326.61 424.267ZM1308.54 338.386C1308.54 303.858 1314.83 275.453 1326.61 252.505L1294.58 236.069C1279.61 265.226 1272.54 299.554 1272.54 338.386H1308.54ZM1326.61 252.505C1338.38 229.565 1355.05 212.36 1376.83 200.425L1359.53 168.854C1331.26 184.343 1309.54 206.903 1294.58 236.069L1326.61 252.505ZM1377 200.334C1398.88 188.045 1425.21 181.557 1456.62 181.557V145.557C1420.17 145.557 1387.54 153.124 1359.37 168.945L1377 200.334ZM1456.62 181.557C1478.53 181.557 1498.29 184.729 1516.06 190.858L1527.8 156.824C1505.81 149.242 1482.03 145.557 1456.62 145.557V181.557ZM1516.32 190.947C1533.74 196.651 1548.03 205.348 1559.59 216.907L1585.05 191.451C1569.18 175.586 1549.88 164.058 1527.53 156.736L1516.32 190.947ZM1559.59 216.907C1570.76 228.07 1579.12 242.802 1584.25 261.831L1619.01 252.453C1612.49 228.289 1601.31 207.712 1585.05 191.451L1559.59 216.907ZM1594.89 240.452L1517.24 271.819L1530.73 305.198L1608.37 273.832L1594.89 240.452ZM1541.54 284.544C1536.33 261.477 1527.01 241.811 1510.84 230.185L1489.83 259.417C1495.59 263.56 1502.04 273.032 1506.43 292.473L1541.54 284.544ZM1511.06 230.345C1496.64 219.649 1479.07 214.974 1459.71 214.974V250.974C1473.26 250.974 1482.77 254.185 1489.61 259.257L1511.06 230.345ZM1459.71 214.974C1440.53 214.974 1422.94 219.714 1407.66 229.758L1427.43 259.844C1436.14 254.119 1446.67 250.974 1459.71 250.974V214.974ZM1407.46 229.892C1392.31 240.141 1381.23 255.078 1373.66 273.409L1406.93 287.153C1412.38 273.947 1419.47 265.23 1427.63 259.71L1407.46 229.892ZM1373.58 273.596C1366.29 291.819 1363.04 313.641 1363.04 338.386H1399.04C1399.04 316.51 1401.95 299.595 1407.01 286.966L1373.58 273.596ZM1363.04 338.386C1363.04 362.756 1366.11 384.38 1372.89 402.731L1406.66 390.251C1401.79 377.064 1399.04 359.951 1399.04 338.386H1363.04ZM1372.89 402.731C1379.77 421.325 1390.58 436.502 1405.92 446.88L1426.09 417.062C1418.12 411.67 1411.45 403.195 1406.66 390.251L1372.89 402.731ZM1406.12 447.013C1421.64 457.211 1440 461.797 1460.22 461.797V425.797C1445.48 425.797 1434.37 422.499 1425.89 416.928L1406.12 447.013ZM1460.22 461.797C1480.11 461.797 1498.08 456.331 1513.01 444.567L1490.73 416.289C1483.04 422.351 1473.24 425.797 1460.22 425.797V461.797ZM1513.07 444.524C1528.83 432.006 1538.38 413.79 1543.11 392.101L1507.94 384.427C1504.45 400.445 1498.23 410.339 1490.68 416.332L1513.07 444.524ZM1520.64 405.588L1600.86 428.213L1610.63 393.564L1530.41 370.939L1520.64 405.588Z" fill="#713732" mask="url(#path-4-outside-2_4010_11088)"/>
<defs>
<linearGradient id="paint0_linear_4010_11088" x1="27.2376" y1="580.04" x2="511.496" y2="416.966" gradientUnits="userSpaceOnUse">
<stop stop-color="#FF4B24"/>
<stop offset="0.4435" stop-color="#FF5689"/>
<stop offset="0.7559" stop-color="#FF5050"/>
</linearGradient>
<linearGradient id="paint1_linear_4010_11088" x1="27.2376" y1="580.04" x2="511.496" y2="416.966" gradientUnits="userSpaceOnUse">
<stop stop-color="#FF4B24"/>
<stop offset="0.4435" stop-color="#FF5689"/>
<stop offset="0.7559" stop-color="#FF5050"/>
</linearGradient>
<linearGradient id="paint2_linear_4010_11088" x1="27.2376" y1="580.04" x2="511.496" y2="416.966" gradientUnits="userSpaceOnUse">
<stop stop-color="#FF4B24"/>
<stop offset="0.4435" stop-color="#FF5689"/>
<stop offset="0.7559" stop-color="#FF5050"/>
</linearGradient>
<linearGradient id="paint3_linear_4010_11088" x1="27.2376" y1="580.04" x2="511.496" y2="416.966" gradientUnits="userSpaceOnUse">
<stop stop-color="#FF4B24"/>
<stop offset="0.4435" stop-color="#FF5689"/>
<stop offset="0.7559" stop-color="#FF5050"/>
</linearGradient>
<linearGradient id="paint4_linear_4010_11088" x1="27.2376" y1="580.04" x2="511.496" y2="416.966" gradientUnits="userSpaceOnUse">
<stop stop-color="#FF4B24"/>
<stop offset="0.4435" stop-color="#FF5689"/>
<stop offset="0.7559" stop-color="#FF5050"/>
</linearGradient>
<linearGradient id="paint5_linear_4010_11088" x1="27.2376" y1="580.04" x2="511.496" y2="416.966" gradientUnits="userSpaceOnUse">
<stop stop-color="#FF4B24"/>
<stop offset="0.4435" stop-color="#FF5689"/>
<stop offset="0.7559" stop-color="#FF5050"/>
</linearGradient>
<linearGradient id="paint6_linear_4010_11088" x1="27.2376" y1="580.04" x2="511.496" y2="416.966" gradientUnits="userSpaceOnUse">
<stop stop-color="#FF4B24"/>
<stop offset="0.4435" stop-color="#FF5689"/>
<stop offset="0.7559" stop-color="#FF5050"/>
</linearGradient>
<linearGradient id="paint7_linear_4010_11088" x1="525.22" y1="648.906" x2="1505.72" y2="-83.6851" gradientUnits="userSpaceOnUse">
<stop stop-color="#FF4B24"/>
<stop offset="0.4435" stop-color="#FF5689"/>
<stop offset="0.7559" stop-color="#FF5050"/>
</linearGradient>
</defs>
</svg>
