<svg width="315" height="389" viewBox="0 0 315 389" fill="none" xmlns="http://www.w3.org/2000/svg">
<g clip-path="url(#clip0_1818_8253)">
<mask id="mask0_1818_8253" style="mask-type:luminance" maskUnits="userSpaceOnUse" x="0" y="0" width="315" height="389">
<path d="M-6.10352e-05 0H314.7V388.04H-6.10352e-05V0Z" fill="white"/>
</mask>
<g mask="url(#mask0_1818_8253)">
<path d="M206.08 187.62C219.56 153.33 230.45 119.28 225.97 82.6101C222.39 53.3101 207.91 30.9201 179.2 20.4601C153.19 10.9901 124.49 19.6601 107.77 40.6501C105.23 43.8401 104.51 46.8501 105.04 51.1001C106.89 65.9801 113.84 76.7301 127.47 83.4401C137.16 88.2001 144 95.6801 145.99 106.86C147.25 113.96 145.13 120.32 142.25 126.57C140.29 130.84 142.46 140.89 146.11 143.72C165.36 158.64 186.09 171.53 206.09 187.63L206.08 187.62ZM153.36 54.1001C153.55 60.3901 148.17 66.1001 141.96 66.1901C135.64 66.2901 129.43 60.4801 129.4 54.4201C129.37 48.3401 134.86 42.6701 141.1 42.3501C147.65 42.0201 153.15 47.2901 153.36 54.0901V54.1001Z" fill="#F9695E"/>
<path d="M152.7 91.6329C145.2 83.6329 136.7 85.4998 134.7 85.5C132.7 85.5001 130.144 89.4307 123.7 88.0001L126.7 89.0002L131.7 93.0002L134.7 99.0003L138.7 108V119L137.7 133.5L144.2 147.5C148.293 143.844 156.173 161.916 158.2 154.5C163.7 141.5 163.731 122.919 163.2 118C162.669 113.081 160.2 99.6329 152.7 91.6329Z" fill="url(#paint0_linear_1818_8253)"/>
<path d="M287.7 165L278.7 150L275.2 145.5L266.7 159L254.7 183.5L221.2 209L176.7 226.5C161.367 230.167 130.4 237.6 129.2 238C128 238.4 119.033 246.5 114.7 250.5C109.533 257.333 99 271.3 98.2 272.5C97.4 273.7 91.2 288 88.2 295L80.7 319L79.7 348L93.7 364.5L120.2 374L165.2 380L210.7 368.5L235.2 357L272.7 320L292.7 286L301.2 240.5L306.2 219H294.2L275.2 228L278.7 216L287.7 165Z" fill="#F9695E" stroke="black"/>
<path fill-rule="evenodd" clip-rule="evenodd" d="M285 153.5C299.836 161.412 280.774 212.93 271.989 233.038C262.041 241.993 239.962 270.449 234.5 270C231.948 268.639 243.177 249.5 248.089 242.5C253 235.5 257.77 222.64 260.785 215.739C268.744 197.52 271.558 146.333 285 153.5Z" fill="#C9554C"/>
<path d="M292.81 207.59C294.48 201.18 296.25 194.87 297.13 188.32C299.79 168.39 296.6 149.29 289.71 130.64C289.14 129.09 288.45 127.55 287.57 126.16C284.15 120.81 278.08 120.62 274.53 125.92C272.99 128.23 271.96 130.94 271 133.57C264.4 151.67 255.66 168.48 241.93 182.31C234.91 189.37 227.13 195.48 218 201.09C219.59 194.71 222.47 189.43 224.87 184.33C234.29 164.33 239.11 143.23 242.03 121.57C244.49 103.34 244.85 84.97 240.03 67.13C231.25 34.58 212.04 11.1 178.24 2.83002C144.09 -5.51998 115.42 4.79003 92.5 31.26C86.2 38.54 80.4099 46.26 74.1299 53.56C63.6599 65.75 50.77 74.55 35.8199 80.46C31.3 82.24 26.7299 82.05 22.11 82.09C18.12 82.12 14.0999 82.13 10.3499 83.67C-1.05005 88.35 -3.60007 102.51 5.56995 112.21C14.33 121.48 25.86 125.11 38.1599 127.1C53.1599 129.53 67.03 124.67 81.11 121.09C94.44 117.7 107.72 114.09 121.02 110.58C123.4 109.95 126.49 108.85 127.96 110.79C129.26 112.5 127.32 115.18 126.23 117.2C122.99 123.22 117.89 127.41 112.32 131.16C98.14 140.7 83.0399 148.86 69.78 159.75C44.4399 180.56 27.43 206.42 23.4 239.47C18.72 277.85 30.5999 311.35 55.9099 340.02C72.5599 358.88 92.8199 373.16 116.95 380.68C163.44 395.17 206.83 388.49 245.99 358.96C286.13 328.68 307 287.34 313.57 238.2C314.71 229.67 315.2 220.97 314.03 212.33C312.6 201.75 306.42 199.07 297.82 205.24C296.61 206.11 295.36 206.91 294.09 207.69C293.88 207.82 293.5 207.65 292.81 207.58V207.59ZM65.75 82.44C66.1 82.04 66.4599 81.64 66.81 81.24C77.3799 72.85 87.9799 64.48 96.53 53.19C98.86 72.5 109.15 85.62 126.55 93.68C123.03 95.12 120.21 95.95 117.35 96.58C95.3299 101.46 73.6299 107.82 51.3199 111.43C40.6299 113.16 30.6499 111.28 21.5999 105.16C17.0099 102.06 16.58 98.9 20.2 95.29C22.8 93.94 25.6599 94.3 28.42 93.99C33.42 93.43 38.4299 92.89 43.4099 92.22C51.36 91.15 57.9999 86.88 64.8699 83.2C65.1599 82.94 65.45 82.69 65.7399 82.43L65.75 82.44ZM200.01 193.72C200.93 193.7 201.95 194.08 201.47 195.03C199.04 199.89 196.45 204.66 193.87 209.45C193.42 210.28 192.57 210.66 191.83 209.91C188.73 206.71 183.91 205.43 181.88 201.03C170.85 195.92 161.52 188.2 151.63 181.34C150.16 180.32 149.46 179.1 149.21 177.29C148.1 169.27 146.82 161.27 145.51 152.64C152.38 157.69 158.72 162.56 165.27 167.13C177.25 175.47 188.94 184.18 199.99 193.73L200.01 193.72ZM279.4 156.88C281.08 158.55 280.85 160.31 281.04 161.92C283.64 183.49 279.66 203.58 269.5 222.5C268.25 224.84 266.5 227.5 264.97 229.53C261 234.5 231.56 267.85 234.5 270C237.819 273.092 276.125 245.46 279 241.5C284.68 236.67 289.36 229.16 295.4 224.75C296.13 224.21 296.94 223.09 297.93 224.01C298.42 224.46 298.58 225.53 298.51 226.29C297.9 232.9 297.59 239.56 296.46 246.08C293.08 265.56 285.76 283.7 275.82 300.65C256.89 332.93 230.67 356.55 193.84 366.6C177.61 371.03 161.03 370.63 144.38 369.09C126.41 367.43 110.23 361.47 95.6799 350.83C93.5499 349.27 92.7099 347.68 92.84 345.07C93.3 335.41 94.3899 325.86 97.4599 316.65C100.68 307 104.68 297.71 109.07 288.49C114.53 277.04 121.36 266.78 130.1 257.78C145.26 242.15 164.64 234.51 185.34 229.88C197.05 227.26 208.72 224 219.36 218.98C237.53 210.42 252.68 197.47 264.76 181.08C270.36 173.48 275.15 165.45 279.41 156.88H279.4ZM206.08 187.61C186.08 171.51 165.35 158.62 146.1 143.7C142.45 140.87 140.28 130.82 142.24 126.55C145.12 120.3 147.24 113.94 145.98 106.84C143.99 95.66 137.15 88.19 127.46 83.42C113.83 76.71 106.87 65.96 105.03 51.08C104.5 46.83 105.22 43.82 107.76 40.63C124.48 19.64 153.18 10.97 179.19 20.44C207.9 30.9 222.38 53.29 225.96 82.59C230.44 119.26 219.55 153.31 206.07 187.6L206.08 187.61ZM101.81 229.53C109.74 215.38 117.55 201.33 126.72 188.11C127.46 187.04 128.4 185.17 129.17 185.21C135 185.53 141.23 184.03 146.55 187.15C152.12 190.42 157.23 194.47 162.84 198.38C141.66 207.53 121.94 218.81 101.82 229.53H101.81ZM77.2 221.93C77.02 221.81 76.8299 221.69 76.6499 221.57C81.61 202.73 86.58 183.89 91.53 165.05C91.81 164 92.4799 163.35 93.3799 162.85C98.1199 160.22 102.53 156.97 108.08 154.88C109.53 161.22 110.89 167.33 112.35 173.42C112.88 175.61 112.08 177.2 110.75 178.85C106.39 184.29 102.12 189.8 97.84 195.3C90.95 204.17 84.07 213.06 77.19 221.93H77.2ZM133.51 136.1C134.9 141.1 136.1 145.37 137.28 149.65C137.68 151.11 137.71 152.06 135.59 152.12C129.3 152.31 123.02 152.73 116.74 153.16C115.46 153.25 114.49 153.26 113.97 151.86C113.34 150.16 114.78 149.92 115.68 149.39C121.82 145.74 127.28 141.16 133.51 136.11V136.1Z" fill="black"/>
<path d="M20 95.5C16.38 99.11 17.01 102.07 21.6 105.17C30.65 111.28 40.64 113.16 51.32 111.44C73.63 107.83 95.32 101.47 117.35 96.5898C120.21 95.9498 123.04 95.13 126.55 93.69C109.15 85.64 98.86 72.52 96.53 53.2C87.98 64.48 77.38 72.8498 66.82 81.2398C66.62 81.4698 66.41 81.7 66.21 81.93C66.06 82.1 65.9 82.2798 65.75 82.4498C65.46 82.7098 65.17 82.95 64.88 83.21C59.6725 87.1415 57.0144 89.2315 51.32 90.5C44.5119 93.0756 38.3903 93.6086 31.5 94.5C25.7511 94.0241 20.7708 94.8683 20.2 95.3L20 95.5ZM72.84 84.4198C73.08 81.7698 82.47 75.48 84.67 76.48C87.05 77.55 88.42 79.5299 86.43 81.9599C84.23 84.6599 81.42 86.7598 78.06 87.8398C74.86 88.8698 73.73 86.6098 72.83 84.4198H72.84Z" fill="#FAB903"/>
<path d="M101.82 229.53C121.94 218.81 141.67 207.53 162.84 198.38C157.24 194.47 152.12 190.43 146.55 187.15C141.23 184.03 135 185.53 129.17 185.21C128.41 185.17 127.46 187.04 126.72 188.11C117.55 201.33 109.75 215.38 101.81 229.53H101.82Z" fill="#FEFEFE"/>
<path d="M202.08 194.62C192.88 187.03 183.03 179.31 172.52 171.56C163.32 164.78 154.3 158.48 145.52 152.64C146.83 161.27 148.11 169.27 149.22 177.29C149.36 178.28 149.63 179.09 150.08 179.79C150.68 180.71 151.42 181.2 151.64 181.35C153.22 182.43 170.01 194.54 193.19 211.26C195.27 208.91 197.76 205.56 199.78 201.13C200.85 198.78 201.58 196.57 202.09 194.62H202.08Z" fill="#FEFEFE"/>
<path d="M77.2099 221.93C84.0899 213.05 90.9699 204.17 97.8599 195.3C102.14 189.8 106.41 184.28 110.77 178.85C112.09 177.2 112.9 175.61 112.37 173.42C110.9 167.34 109.55 161.22 108.1 154.88C102.55 156.98 98.1299 160.22 93.3999 162.85C92.4999 163.35 91.8299 164 91.5499 165.05C86.5999 183.89 81.6399 202.73 76.6699 221.57C76.8499 221.69 77.0399 221.81 77.2199 221.93H77.2099Z" fill="#FEFEFE"/>
<path d="M133.52 136.1C127.29 141.16 121.83 145.73 115.69 149.38C114.79 149.92 113.35 150.16 113.98 151.85C114.5 153.25 115.46 153.24 116.75 153.15C123.03 152.72 129.31 152.31 135.6 152.11C137.72 152.04 137.69 151.09 137.29 149.64C136.11 145.36 134.92 141.09 133.52 136.09V136.1Z" fill="#FEFEFE"/>
<path d="M20.1999 95.3C31.1499 99.14 41.7999 96 52.3799 93.59C58.0499 92.3 63.4099 89.91 64.8799 83.21C57.9999 86.88 51.3699 91.16 43.4099 92.23C38.4199 92.9 33.4199 93.44 28.4199 94C25.6599 94.31 22.7899 93.95 20.1999 95.3Z" fill="#FF9901"/>
<path d="M153.36 54.0999C153.15 47.2999 147.65 42.0299 141.1 42.3599C134.86 42.6799 129.37 48.3399 129.4 54.4299C129.43 60.4799 135.63 66.2899 141.96 66.1999C148.17 66.1099 153.55 60.3999 153.36 54.1099V54.0999Z" fill="black"/>
<path d="M72.8399 84.4197C73 86.5 74.8699 88.8797 78.0699 87.8397C81.4299 86.7597 84.2399 84.6598 86.4399 81.9598C88.4299 79.5198 87.0499 77.5498 84.6799 76.4798C82.4699 75.4798 73.0699 81.5647 72.8399 84.2147V84.4197Z" fill="black"/>
</g>
</g>
<defs>
<linearGradient id="paint0_linear_1818_8253" x1="159.07" y1="149.33" x2="101.61" y2="134.44" gradientUnits="userSpaceOnUse">
<stop stop-color="#C9554C"/>
</linearGradient>
<clipPath id="clip0_1818_8253">
<rect width="315" height="389" fill="white"/>
</clipPath>
</defs>
</svg>
