<svg width="317" height="391" viewBox="0 0 317 391" fill="none" xmlns="http://www.w3.org/2000/svg">
<mask id="path-1-outside-1_2856_57574" maskUnits="userSpaceOnUse" x="0" y="0" width="317" height="391" fill="black">
<rect fill="white" width="317" height="391"/>
<path d="M293.807 208.591C295.477 202.181 297.247 195.871 298.127 189.321C300.787 169.391 297.597 150.291 290.707 131.641C290.137 130.091 289.447 128.551 288.567 127.161C285.147 121.811 279.077 121.621 275.527 126.921C273.987 129.231 272.957 131.941 271.997 134.571C265.397 152.671 256.657 169.481 242.927 183.311C235.907 190.371 228.127 196.481 218.997 202.091C220.587 195.711 223.467 190.431 225.867 185.331C235.287 165.331 240.107 144.231 243.027 122.571C245.487 104.341 245.847 85.971 241.027 68.131C232.247 35.581 213.037 12.101 179.237 3.831C145.087 -4.519 116.417 5.79101 93.4966 32.261C87.1966 39.541 81.4066 47.261 75.1266 54.561C64.6566 66.751 51.7666 75.551 36.8166 81.461C32.2966 83.241 27.7266 83.051 23.1066 83.091C19.1166 83.121 15.0966 83.131 11.3466 84.671C-0.0533676 89.351 -2.60337 103.511 6.56663 113.211C15.3266 122.481 26.8566 126.111 39.1566 128.101C54.1566 130.531 68.0266 125.671 82.1066 122.091C95.4366 118.701 108.717 115.091 122.017 111.581C124.397 110.951 127.487 109.851 128.957 111.791C130.257 113.501 128.317 116.181 127.227 118.201C123.987 124.221 118.887 128.411 113.317 132.161C99.1366 141.701 84.0366 149.861 70.7766 160.751C45.4366 181.561 28.4267 207.421 24.3967 240.471C19.7167 278.851 31.5966 312.351 56.9066 341.021C73.5566 359.881 93.8166 374.161 117.947 381.681C164.437 396.171 207.827 389.491 246.987 359.961C287.127 329.681 307.997 288.341 314.567 239.201C315.707 230.671 316.197 221.971 315.027 213.331C313.597 202.751 307.417 200.071 298.817 206.241C297.607 207.111 296.357 207.911 295.087 208.691C294.877 208.821 294.497 208.651 293.807 208.581V208.591ZM66.7466 83.441C67.0966 83.041 67.65 82.4 68 82C78.57 73.61 88.9766 65.481 97.5266 54.191C99.8566 73.501 110.147 86.621 127.547 94.681C124.027 96.121 121.207 96.951 118.347 97.581C96.3266 102.461 74.6266 108.821 52.3166 112.431C41.6266 114.161 31.6466 112.281 22.5966 106.161C18.0066 103.061 17.5766 99.901 21.1966 96.291C23.7966 94.941 26.6566 95.301 29.4166 94.991C34.4166 94.431 39.4266 93.891 44.4066 93.221C52.3566 92.151 58.9966 87.881 65.8666 84.201C66.1566 83.941 66.4466 83.691 66.7366 83.431L66.7466 83.441ZM200.5 194.5C202 195.5 201.771 196.457 201.5 197C199.07 201.86 198.58 202.71 196 207.5C195 209 193.5 208.667 192.5 208C188 205 187.5 204.704 182.877 202.031C172.5 196.031 162.517 189.201 152.627 182.341C151.157 181.321 150.457 180.101 150.207 178.291C149.097 170.271 147.817 162.271 146.507 153.641C153.377 158.691 159.717 163.561 166.267 168.131C178.247 176.471 189.45 184.95 200.5 194.5ZM280.397 157.881C280.399 157.883 280.401 157.885 280.403 157.888C282.076 159.556 281.847 161.313 282.037 162.921C284.637 184.491 280.657 204.581 270.497 223.501C269.247 225.841 267.497 228.501 265.967 230.531C261.997 235.501 232.557 268.851 235.497 271.001C238.815 274.093 277.121 246.461 279.997 242.501C285.677 237.671 290.357 230.161 296.397 225.751C297.127 225.211 297.937 224.091 298.927 225.011C299.417 225.461 299.577 226.531 299.507 227.291C298.897 233.901 298.587 240.561 297.457 247.081C294.077 266.561 286.757 284.701 276.817 301.651C257.887 333.931 231.667 357.551 194.837 367.601C178.607 372.031 162.027 371.631 145.377 370.091C127.407 368.431 111.227 362.471 96.6766 351.831C94.5466 350.271 93.7066 348.681 93.8366 346.071C94.2966 336.411 95.3866 326.861 98.4566 317.651C101.677 308.001 105.677 298.711 110.067 289.491C115.527 278.041 122.357 267.781 131.097 258.781C146.257 243.151 165.637 235.511 186.337 230.881C198.047 228.261 209.717 225.001 220.357 219.981C238.527 211.421 253.677 198.471 265.757 182.081C271.355 174.483 276.144 166.455 280.403 157.888C280.405 157.885 280.406 157.883 280.407 157.881H280.397ZM207.077 188.611C187.077 172.511 166.347 159.621 147.097 144.701C143.447 141.871 141.277 131.821 143.237 127.551C146.117 121.301 148.237 114.941 146.977 107.841C144.987 96.661 138.147 89.191 128.457 84.421C114.827 77.711 107.867 66.961 106.027 52.081C105.497 47.831 106.217 44.821 108.757 41.631C125.477 20.641 154.177 11.971 180.187 21.441C208.897 31.901 223.377 54.291 226.957 83.591C231.437 120.261 220.547 154.311 207.067 188.601L207.077 188.611ZM102.807 230.531C110.737 216.381 118.547 202.331 127.717 189.111C128.457 188.041 129.397 186.171 130.167 186.211C135.997 186.531 142.227 185.031 147.547 188.151C153.117 191.421 158.227 195.471 163.837 199.381C142.657 208.531 122.937 219.811 102.817 230.531H102.807ZM78.1966 222.931C78.1944 222.93 78.1922 222.928 78.19 222.927C78.012 222.808 77.8244 222.69 77.6466 222.571C82.6066 203.731 87.5766 184.891 92.5266 166.051C92.8066 165.001 93.4766 164.351 94.3766 163.851C99.1166 161.221 103.527 157.971 109.077 155.881C110.527 162.221 111.887 168.331 113.347 174.421C113.877 176.611 113.077 178.201 111.747 179.851C107.387 185.291 103.117 190.801 98.8366 196.301C91.9478 205.17 85.0689 214.058 78.19 222.927L78.1866 222.931H78.1966ZM134.507 137.101C135.897 142.101 137.097 146.371 138.277 150.651C138.677 152.111 138.707 153.061 136.587 153.121C130.297 153.311 124.017 153.731 117.737 154.161C116.457 154.251 115.487 154.261 114.967 152.861C114.337 151.161 115.777 150.921 116.677 150.391C122.817 146.741 128.277 142.161 134.507 137.111V137.101Z"/>
<path d="M207.077 188.611C187.077 172.511 166.347 159.621 147.097 144.701C143.447 141.871 141.277 131.821 143.237 127.551C146.117 121.301 148.237 114.941 146.977 107.841C144.987 96.661 138.147 89.191 128.457 84.421C114.827 77.711 107.867 66.961 106.027 52.081C105.497 47.831 106.217 44.821 108.757 41.631C125.477 20.641 154.177 11.971 180.187 21.441C208.897 31.901 223.377 54.291 226.957 83.591C231.437 120.261 220.547 154.311 207.067 188.601L207.077 188.611Z"/>
<path d="M282.037 162.921C281.847 161.313 282.076 159.556 280.403 157.888C276.144 166.455 271.355 174.483 265.757 182.081C253.677 198.471 238.527 211.421 220.357 219.981C209.717 225.001 198.047 228.261 186.337 230.881C165.637 235.511 146.257 243.151 131.097 258.781C122.357 267.781 115.527 278.041 110.067 289.491C105.677 298.711 101.677 308.001 98.4566 317.651C95.3866 326.861 94.2966 336.411 93.8366 346.071C93.7066 348.681 94.5466 350.271 96.6766 351.831C111.227 362.471 127.407 368.431 145.377 370.091C162.027 371.631 178.607 372.031 194.837 367.601C231.667 357.551 257.887 333.931 276.817 301.651C286.757 284.701 294.077 266.561 297.457 247.081C298.587 240.561 298.897 233.901 299.507 227.291C299.577 226.531 299.417 225.461 298.927 225.011C297.937 224.091 297.127 225.211 296.397 225.751C290.357 230.161 285.677 237.671 279.997 242.501C277.121 246.461 238.815 274.093 235.497 271.001C232.557 268.851 261.997 235.501 265.967 230.531C267.497 228.501 269.247 225.841 270.497 223.501C280.657 204.581 284.637 184.491 282.037 162.921Z"/>
<path d="M200.5 194.5C202 195.5 201.771 196.457 201.5 197C199.07 201.86 198.58 202.71 196 207.5C195 209 193.5 208.667 192.5 208C188 205 187.5 204.704 182.877 202.031C172.5 196.031 162.517 189.201 152.627 182.341C151.157 181.321 150.457 180.101 150.207 178.291C149.097 170.271 147.817 162.271 146.507 153.641C153.377 158.691 159.717 163.561 166.267 168.131C178.247 176.471 189.45 184.95 200.5 194.5Z"/>
<path d="M102.807 230.531C110.737 216.381 118.547 202.331 127.717 189.111C128.457 188.041 129.397 186.171 130.167 186.211C135.997 186.531 142.227 185.031 147.547 188.151C153.117 191.421 158.227 195.471 163.837 199.381C142.657 208.531 122.937 219.811 102.817 230.531H102.807Z"/>
<path d="M77.6466 222.571C77.8244 222.69 78.012 222.808 78.19 222.927C85.0689 214.058 91.9478 205.17 98.8366 196.301C103.117 190.801 107.387 185.291 111.747 179.851C113.077 178.201 113.877 176.611 113.347 174.421C111.887 168.331 110.527 162.221 109.077 155.881C103.527 157.971 99.1166 161.221 94.3766 163.851C93.4766 164.351 92.8066 165.001 92.5266 166.051C87.5766 184.891 82.6066 203.731 77.6466 222.571Z"/>
<path d="M134.507 137.101C135.897 142.101 137.097 146.371 138.277 150.651C138.677 152.111 138.707 153.061 136.587 153.121C130.297 153.311 124.017 153.731 117.737 154.161C116.457 154.251 115.487 154.261 114.967 152.861C114.337 151.161 115.777 150.921 116.677 150.391C122.817 146.741 128.277 142.161 134.507 137.111V137.101Z"/>
<path d="M66.7466 83.441C67.0966 83.041 67.65 82.4 68 82C78.57 73.61 88.9766 65.481 97.5266 54.191C99.8566 73.501 110.147 86.621 127.547 94.681C124.027 96.121 121.207 96.951 118.347 97.581C96.3266 102.461 74.6266 108.821 52.3166 112.431C41.6266 114.161 31.6466 112.281 22.5966 106.161C18.0066 103.061 17.5766 99.901 21.1966 96.291C23.7966 94.941 26.6566 95.301 29.4166 94.991C34.4166 94.431 39.4266 93.891 44.4066 93.221C52.3566 92.151 58.9966 87.881 65.8666 84.201C66.1566 83.941 66.4466 83.691 66.7366 83.431L66.7466 83.441Z"/>
</mask>
<path d="M293.807 208.591C295.477 202.181 297.247 195.871 298.127 189.321C300.787 169.391 297.597 150.291 290.707 131.641C290.137 130.091 289.447 128.551 288.567 127.161C285.147 121.811 279.077 121.621 275.527 126.921C273.987 129.231 272.957 131.941 271.997 134.571C265.397 152.671 256.657 169.481 242.927 183.311C235.907 190.371 228.127 196.481 218.997 202.091C220.587 195.711 223.467 190.431 225.867 185.331C235.287 165.331 240.107 144.231 243.027 122.571C245.487 104.341 245.847 85.971 241.027 68.131C232.247 35.581 213.037 12.101 179.237 3.831C145.087 -4.519 116.417 5.79101 93.4966 32.261C87.1966 39.541 81.4066 47.261 75.1266 54.561C64.6566 66.751 51.7666 75.551 36.8166 81.461C32.2966 83.241 27.7266 83.051 23.1066 83.091C19.1166 83.121 15.0966 83.131 11.3466 84.671C-0.0533676 89.351 -2.60337 103.511 6.56663 113.211C15.3266 122.481 26.8566 126.111 39.1566 128.101C54.1566 130.531 68.0266 125.671 82.1066 122.091C95.4366 118.701 108.717 115.091 122.017 111.581C124.397 110.951 127.487 109.851 128.957 111.791C130.257 113.501 128.317 116.181 127.227 118.201C123.987 124.221 118.887 128.411 113.317 132.161C99.1366 141.701 84.0366 149.861 70.7766 160.751C45.4366 181.561 28.4267 207.421 24.3967 240.471C19.7167 278.851 31.5966 312.351 56.9066 341.021C73.5566 359.881 93.8166 374.161 117.947 381.681C164.437 396.171 207.827 389.491 246.987 359.961C287.127 329.681 307.997 288.341 314.567 239.201C315.707 230.671 316.197 221.971 315.027 213.331C313.597 202.751 307.417 200.071 298.817 206.241C297.607 207.111 296.357 207.911 295.087 208.691C294.877 208.821 294.497 208.651 293.807 208.581V208.591ZM66.7466 83.441C67.0966 83.041 67.65 82.4 68 82C78.57 73.61 88.9766 65.481 97.5266 54.191C99.8566 73.501 110.147 86.621 127.547 94.681C124.027 96.121 121.207 96.951 118.347 97.581C96.3266 102.461 74.6266 108.821 52.3166 112.431C41.6266 114.161 31.6466 112.281 22.5966 106.161C18.0066 103.061 17.5766 99.901 21.1966 96.291C23.7966 94.941 26.6566 95.301 29.4166 94.991C34.4166 94.431 39.4266 93.891 44.4066 93.221C52.3566 92.151 58.9966 87.881 65.8666 84.201C66.1566 83.941 66.4466 83.691 66.7366 83.431L66.7466 83.441ZM200.5 194.5C202 195.5 201.771 196.457 201.5 197C199.07 201.86 198.58 202.71 196 207.5C195 209 193.5 208.667 192.5 208C188 205 187.5 204.704 182.877 202.031C172.5 196.031 162.517 189.201 152.627 182.341C151.157 181.321 150.457 180.101 150.207 178.291C149.097 170.271 147.817 162.271 146.507 153.641C153.377 158.691 159.717 163.561 166.267 168.131C178.247 176.471 189.45 184.95 200.5 194.5ZM280.397 157.881C280.399 157.883 280.401 157.885 280.403 157.888C282.076 159.556 281.847 161.313 282.037 162.921C284.637 184.491 280.657 204.581 270.497 223.501C269.247 225.841 267.497 228.501 265.967 230.531C261.997 235.501 232.557 268.851 235.497 271.001C238.815 274.093 277.121 246.461 279.997 242.501C285.677 237.671 290.357 230.161 296.397 225.751C297.127 225.211 297.937 224.091 298.927 225.011C299.417 225.461 299.577 226.531 299.507 227.291C298.897 233.901 298.587 240.561 297.457 247.081C294.077 266.561 286.757 284.701 276.817 301.651C257.887 333.931 231.667 357.551 194.837 367.601C178.607 372.031 162.027 371.631 145.377 370.091C127.407 368.431 111.227 362.471 96.6766 351.831C94.5466 350.271 93.7066 348.681 93.8366 346.071C94.2966 336.411 95.3866 326.861 98.4566 317.651C101.677 308.001 105.677 298.711 110.067 289.491C115.527 278.041 122.357 267.781 131.097 258.781C146.257 243.151 165.637 235.511 186.337 230.881C198.047 228.261 209.717 225.001 220.357 219.981C238.527 211.421 253.677 198.471 265.757 182.081C271.355 174.483 276.144 166.455 280.403 157.888C280.405 157.885 280.406 157.883 280.407 157.881H280.397ZM207.077 188.611C187.077 172.511 166.347 159.621 147.097 144.701C143.447 141.871 141.277 131.821 143.237 127.551C146.117 121.301 148.237 114.941 146.977 107.841C144.987 96.661 138.147 89.191 128.457 84.421C114.827 77.711 107.867 66.961 106.027 52.081C105.497 47.831 106.217 44.821 108.757 41.631C125.477 20.641 154.177 11.971 180.187 21.441C208.897 31.901 223.377 54.291 226.957 83.591C231.437 120.261 220.547 154.311 207.067 188.601L207.077 188.611ZM102.807 230.531C110.737 216.381 118.547 202.331 127.717 189.111C128.457 188.041 129.397 186.171 130.167 186.211C135.997 186.531 142.227 185.031 147.547 188.151C153.117 191.421 158.227 195.471 163.837 199.381C142.657 208.531 122.937 219.811 102.817 230.531H102.807ZM78.1966 222.931C78.1944 222.93 78.1922 222.928 78.19 222.927C78.012 222.808 77.8244 222.69 77.6466 222.571C82.6066 203.731 87.5766 184.891 92.5266 166.051C92.8066 165.001 93.4766 164.351 94.3766 163.851C99.1166 161.221 103.527 157.971 109.077 155.881C110.527 162.221 111.887 168.331 113.347 174.421C113.877 176.611 113.077 178.201 111.747 179.851C107.387 185.291 103.117 190.801 98.8366 196.301C91.9478 205.17 85.0689 214.058 78.19 222.927L78.1866 222.931H78.1966ZM134.507 137.101C135.897 142.101 137.097 146.371 138.277 150.651C138.677 152.111 138.707 153.061 136.587 153.121C130.297 153.311 124.017 153.731 117.737 154.161C116.457 154.251 115.487 154.261 114.967 152.861C114.337 151.161 115.777 150.921 116.677 150.391C122.817 146.741 128.277 142.161 134.507 137.111V137.101Z" fill="#7D3D38"/>
<path d="M207.077 188.611C187.077 172.511 166.347 159.621 147.097 144.701C143.447 141.871 141.277 131.821 143.237 127.551C146.117 121.301 148.237 114.941 146.977 107.841C144.987 96.661 138.147 89.191 128.457 84.421C114.827 77.711 107.867 66.961 106.027 52.081C105.497 47.831 106.217 44.821 108.757 41.631C125.477 20.641 154.177 11.971 180.187 21.441C208.897 31.901 223.377 54.291 226.957 83.591C231.437 120.261 220.547 154.311 207.067 188.601L207.077 188.611Z" fill="#7D3D38"/>
<path d="M282.037 162.921C281.847 161.313 282.076 159.556 280.403 157.888C276.144 166.455 271.355 174.483 265.757 182.081C253.677 198.471 238.527 211.421 220.357 219.981C209.717 225.001 198.047 228.261 186.337 230.881C165.637 235.511 146.257 243.151 131.097 258.781C122.357 267.781 115.527 278.041 110.067 289.491C105.677 298.711 101.677 308.001 98.4566 317.651C95.3866 326.861 94.2966 336.411 93.8366 346.071C93.7066 348.681 94.5466 350.271 96.6766 351.831C111.227 362.471 127.407 368.431 145.377 370.091C162.027 371.631 178.607 372.031 194.837 367.601C231.667 357.551 257.887 333.931 276.817 301.651C286.757 284.701 294.077 266.561 297.457 247.081C298.587 240.561 298.897 233.901 299.507 227.291C299.577 226.531 299.417 225.461 298.927 225.011C297.937 224.091 297.127 225.211 296.397 225.751C290.357 230.161 285.677 237.671 279.997 242.501C277.121 246.461 238.815 274.093 235.497 271.001C232.557 268.851 261.997 235.501 265.967 230.531C267.497 228.501 269.247 225.841 270.497 223.501C280.657 204.581 284.637 184.491 282.037 162.921Z" fill="#7D3D38"/>
<path d="M200.5 194.5C202 195.5 201.771 196.457 201.5 197C199.07 201.86 198.58 202.71 196 207.5C195 209 193.5 208.667 192.5 208C188 205 187.5 204.704 182.877 202.031C172.5 196.031 162.517 189.201 152.627 182.341C151.157 181.321 150.457 180.101 150.207 178.291C149.097 170.271 147.817 162.271 146.507 153.641C153.377 158.691 159.717 163.561 166.267 168.131C178.247 176.471 189.45 184.95 200.5 194.5Z" fill="#7D3D38"/>
<path d="M102.807 230.531C110.737 216.381 118.547 202.331 127.717 189.111C128.457 188.041 129.397 186.171 130.167 186.211C135.997 186.531 142.227 185.031 147.547 188.151C153.117 191.421 158.227 195.471 163.837 199.381C142.657 208.531 122.937 219.811 102.817 230.531H102.807Z" fill="#7D3D38"/>
<path d="M77.6466 222.571C77.8244 222.69 78.012 222.808 78.19 222.927C85.0689 214.058 91.9478 205.17 98.8366 196.301C103.117 190.801 107.387 185.291 111.747 179.851C113.077 178.201 113.877 176.611 113.347 174.421C111.887 168.331 110.527 162.221 109.077 155.881C103.527 157.971 99.1166 161.221 94.3766 163.851C93.4766 164.351 92.8066 165.001 92.5266 166.051C87.5766 184.891 82.6066 203.731 77.6466 222.571Z" fill="#7D3D38"/>
<path d="M134.507 137.101C135.897 142.101 137.097 146.371 138.277 150.651C138.677 152.111 138.707 153.061 136.587 153.121C130.297 153.311 124.017 153.731 117.737 154.161C116.457 154.251 115.487 154.261 114.967 152.861C114.337 151.161 115.777 150.921 116.677 150.391C122.817 146.741 128.277 142.161 134.507 137.111V137.101Z" fill="#7D3D38"/>
<path d="M66.7466 83.441C67.0966 83.041 67.65 82.4 68 82C78.57 73.61 88.9766 65.481 97.5266 54.191C99.8566 73.501 110.147 86.621 127.547 94.681C124.027 96.121 121.207 96.951 118.347 97.581C96.3266 102.461 74.6266 108.821 52.3166 112.431C41.6266 114.161 31.6466 112.281 22.5966 106.161C18.0066 103.061 17.5766 99.901 21.1966 96.291C23.7966 94.941 26.6566 95.301 29.4166 94.991C34.4166 94.431 39.4266 93.891 44.4066 93.221C52.3566 92.151 58.9966 87.881 65.8666 84.201C66.1566 83.941 66.4466 83.691 66.7366 83.431L66.7466 83.441Z" fill="#7D3D38"/>
<path d="M66.7466 83.441L66.3932 83.7947L66.7711 84.1723L67.1229 83.7702L66.7466 83.441ZM68 82L67.6891 81.6084L67.6536 81.6366L67.6237 81.6707L68 82ZM97.5266 54.191L98.023 54.1311L97.8749 52.903L97.128 53.8891L97.5266 54.191ZM127.547 94.681L127.736 95.1438L128.798 94.7094L127.757 94.2273L127.547 94.681ZM118.347 97.581L118.239 97.0927L118.238 97.0928L118.347 97.581ZM52.3166 112.431L52.2368 111.937L52.2368 111.937L52.3166 112.431ZM22.5966 106.161L22.8767 105.747L22.8765 105.747L22.5966 106.161ZM21.1966 96.291L20.9662 95.8472L20.898 95.8827L20.8436 95.9369L21.1966 96.291ZM29.4166 94.991L29.361 94.4941L29.3608 94.4941L29.4166 94.991ZM44.4066 93.221L44.4733 93.7165L44.4733 93.7165L44.4066 93.221ZM65.8666 84.201L66.1027 84.6417L66.1557 84.6134L66.2004 84.5733L65.8666 84.201ZM66.7366 83.431L67.0901 83.0773L66.7553 82.7428L66.4029 83.0587L66.7366 83.431ZM200.5 194.5L200.173 194.878L200.197 194.899L200.223 194.916L200.5 194.5ZM196 207.5L196.416 207.777L196.429 207.758L196.44 207.737L196 207.5ZM192.5 208L192.777 207.584L192.5 208ZM182.877 202.031L182.626 202.464L182.877 202.031ZM152.627 182.341L152.342 182.752L152.342 182.752L152.627 182.341ZM150.207 178.291L150.702 178.223L150.702 178.222L150.207 178.291ZM146.507 153.641L146.803 153.238L145.831 152.524L146.012 153.716L146.507 153.641ZM166.267 168.131L165.981 168.541L165.981 168.541L166.267 168.131ZM282.037 162.921L281.54 162.98L281.54 162.981L282.037 162.921ZM270.497 223.501L270.056 223.264L270.056 223.265L270.497 223.501ZM265.967 230.531L266.358 230.843L266.366 230.832L265.967 230.531ZM235.497 271.001L235.838 270.635L235.816 270.615L235.792 270.597L235.497 271.001ZM279.997 242.501L279.673 242.12L279.627 242.159L279.592 242.207L279.997 242.501ZM296.397 225.751L296.692 226.155L296.694 226.153L296.397 225.751ZM298.927 225.011L298.586 225.377L298.589 225.379L298.927 225.011ZM299.507 227.291L300.005 227.337L300.005 227.337L299.507 227.291ZM297.457 247.081L297.949 247.166L297.949 247.166L297.457 247.081ZM276.817 301.651L277.248 301.904L277.248 301.904L276.817 301.651ZM194.837 367.601L194.705 367.119L194.705 367.119L194.837 367.601ZM145.377 370.091L145.423 369.593L145.423 369.593L145.377 370.091ZM96.6766 351.831L96.3812 352.234L96.3815 352.235L96.6766 351.831ZM93.8366 346.071L94.336 346.096L94.3361 346.095L93.8366 346.071ZM98.4566 317.651L97.9823 317.493L97.9823 317.493L98.4566 317.651ZM110.067 289.491L109.615 289.276L109.615 289.276L110.067 289.491ZM131.097 258.781L131.455 259.129L131.456 259.129L131.097 258.781ZM186.337 230.881L186.446 231.369L186.446 231.369L186.337 230.881ZM220.357 219.981L220.144 219.529L220.143 219.529L220.357 219.981ZM265.757 182.081L266.159 182.378L266.159 182.378L265.757 182.081ZM207.077 188.611L206.763 189L207.43 188.257L207.077 188.611ZM147.097 144.701L146.79 145.096L146.79 145.096L147.097 144.701ZM143.237 127.551L142.783 127.342L142.782 127.342L143.237 127.551ZM146.977 107.841L147.469 107.754L147.469 107.753L146.977 107.841ZM128.457 84.421L128.236 84.8696L128.236 84.8696L128.457 84.421ZM106.027 52.081L106.523 52.0196L106.523 52.0191L106.027 52.081ZM108.757 41.631L108.366 41.3195L108.365 41.3195L108.757 41.631ZM180.187 21.441L180.358 20.9712L180.358 20.9712L180.187 21.441ZM226.957 83.591L227.453 83.5303L227.453 83.5303L226.957 83.591ZM207.067 188.601L206.601 188.418L206.481 188.723L206.713 188.955L207.067 188.601ZM102.807 230.531L102.37 230.287L101.953 231.031H102.807V230.531ZM127.717 189.111L128.127 189.396L128.128 189.395L127.717 189.111ZM130.167 186.211L130.194 185.712L130.193 185.712L130.167 186.211ZM147.547 188.151L147.8 187.72L147.8 187.72L147.547 188.151ZM163.837 199.381L164.035 199.84L164.859 199.484L164.123 198.971L163.837 199.381ZM102.817 230.531V231.031H102.942L103.052 230.972L102.817 230.531ZM77.6466 222.571L77.1631 222.444L77.0722 222.789L77.3693 222.987L77.6466 222.571ZM92.5266 166.051L92.0435 165.922L92.0431 165.924L92.5266 166.051ZM94.3766 163.851L94.134 163.414L94.1338 163.414L94.3766 163.851ZM109.077 155.881L109.564 155.77L109.436 155.211L108.9 155.413L109.077 155.881ZM113.347 174.421L112.86 174.538L112.861 174.539L113.347 174.421ZM111.747 179.851L111.357 179.537L111.356 179.538L111.747 179.851ZM98.8366 196.301L98.442 195.994L98.4418 195.994L98.8366 196.301ZM134.507 137.101L134.988 136.967L134.007 137.101H134.507ZM138.277 150.651L138.759 150.519L138.759 150.518L138.277 150.651ZM136.587 153.121L136.572 152.621L136.572 152.621L136.587 153.121ZM117.737 154.161L117.702 153.662L117.702 153.662L117.737 154.161ZM114.967 152.861L114.498 153.035L114.498 153.035L114.967 152.861ZM116.677 150.391L116.93 150.822L116.932 150.821L116.677 150.391ZM134.507 137.111L134.821 137.499L135.007 137.349V137.111H134.507ZM280.403 157.888L280.756 157.534L280.265 157.043L279.956 157.665L280.403 157.888ZM78.19 222.927L77.913 223.343L78.3001 223.601L78.5851 223.233L78.19 222.927ZM67.1229 83.7702C67.2988 83.5693 67.5254 83.3082 67.751 83.0482C67.977 82.7877 68.2021 82.5283 68.3763 82.3293L67.6237 81.6707C67.4479 81.8717 67.2213 82.1328 66.9957 82.3928C66.7696 82.6533 66.5445 82.9127 66.3704 83.1117L67.1229 83.7702ZM68.3109 82.3916C78.8716 74.009 89.3305 65.8419 97.9252 54.4928L97.128 53.8891C88.6228 65.12 78.2684 73.211 67.6891 81.6084L68.3109 82.3916ZM97.0302 54.2509C99.3825 73.7449 109.791 87.0071 127.336 95.1347L127.757 94.2273C110.503 86.2348 100.331 73.257 98.023 54.1311L97.0302 54.2509ZM127.357 94.2182C123.865 95.647 121.072 96.4686 118.239 97.0927L118.454 98.0693C121.341 97.4334 124.188 96.595 127.736 95.1438L127.357 94.2182ZM118.238 97.0928C96.1707 101.983 74.532 108.33 52.2368 111.937L52.3965 112.925C74.7213 109.312 96.4826 102.939 118.455 98.0691L118.238 97.0928ZM52.2368 111.937C41.662 113.649 31.8127 111.79 22.8767 105.747L22.3165 106.575C31.4806 112.772 41.5913 114.673 52.3965 112.925L52.2368 111.937ZM22.8765 105.747C20.6202 104.223 19.5119 102.764 19.313 101.348C19.1164 99.948 19.7852 98.4046 21.5497 96.645L20.8436 95.9369C18.988 97.7873 18.0618 99.629 18.3227 101.487C18.5813 103.328 19.983 104.999 22.3168 106.575L22.8765 105.747ZM21.427 96.7347C22.6429 96.1034 23.9329 95.8642 25.2889 95.7492C25.9688 95.6915 26.6535 95.6657 27.3557 95.6346C28.053 95.6036 28.7641 95.5674 29.4724 95.4879L29.3608 94.4941C28.6892 94.5695 28.0078 94.6046 27.3113 94.6355C26.6197 94.6662 25.9095 94.693 25.2044 94.7528C23.7904 94.8727 22.3504 95.1286 20.9662 95.8472L21.427 96.7347ZM29.4723 95.4879C34.4692 94.9282 39.4863 94.3875 44.4733 93.7165L44.34 92.7255C39.3669 93.3945 34.3641 93.9337 29.361 94.4941L29.4723 95.4879ZM44.4733 93.7165C52.5382 92.6311 59.2842 88.2941 66.1027 84.6417L65.6305 83.7602C58.709 87.4678 52.1751 91.6709 44.3399 92.7255L44.4733 93.7165ZM66.2004 84.5733C66.3433 84.4451 66.4865 84.3192 66.6318 84.1915C66.7765 84.0642 66.9233 83.9351 67.0704 83.8033L66.4029 83.0587C66.26 83.1868 66.1168 83.3127 65.9715 83.4405C65.8268 83.5677 65.68 83.6968 65.5329 83.8287L66.2004 84.5733ZM66.3832 83.7847L66.3932 83.7947L67.1001 83.0873L67.0901 83.0773L66.3832 83.7847ZM200.223 194.916C200.903 195.37 201.116 195.762 201.176 196.03C201.237 196.304 201.163 196.556 201.053 196.776L201.947 197.224C202.108 196.901 202.284 196.403 202.152 195.813C202.019 195.217 201.597 194.63 200.777 194.084L200.223 194.916ZM201.053 196.776C198.627 201.629 198.14 202.473 195.56 207.263L196.44 207.737C199.02 202.947 199.513 202.091 201.947 197.224L201.053 196.776ZM195.584 207.223C195.169 207.845 194.69 208.048 194.233 208.063C193.746 208.079 193.223 207.881 192.777 207.584L192.223 208.416C192.777 208.785 193.504 209.088 194.267 209.062C195.06 209.036 195.831 208.655 196.416 207.777L195.584 207.223ZM192.777 207.584C188.267 204.577 187.758 204.276 183.127 201.598L182.626 202.464C187.242 205.133 187.733 205.423 192.223 208.416L192.777 207.584ZM183.127 201.598C172.77 195.61 162.802 188.79 152.912 181.93L152.342 182.752C162.231 189.612 172.23 196.452 182.626 202.464L183.127 201.598ZM152.912 181.93C152.225 181.454 151.737 180.944 151.389 180.357C151.041 179.77 150.82 179.079 150.702 178.223L149.711 178.359C149.843 179.312 150.097 180.137 150.529 180.867C150.962 181.598 151.558 182.208 152.342 182.752L152.912 181.93ZM150.702 178.222C149.591 170.198 148.31 162.191 147.001 153.566L146.012 153.716C147.323 162.351 148.602 170.344 149.711 178.36L150.702 178.222ZM146.21 154.044C153.069 159.085 159.424 163.967 165.981 168.541L166.553 167.721C160.009 163.155 153.684 158.297 146.803 153.238L146.21 154.044ZM165.981 168.541C177.95 176.874 189.139 185.342 200.173 194.878L200.827 194.122C189.761 184.558 178.543 176.068 166.552 167.721L165.981 168.541ZM281.54 162.981C284.128 184.446 280.169 204.433 270.056 223.264L270.937 223.738C281.145 204.729 285.146 184.536 282.533 162.861L281.54 162.981ZM270.056 223.265C268.82 225.579 267.085 228.217 265.567 230.23L266.366 230.832C267.909 228.785 269.673 226.103 270.938 223.737L270.056 223.265ZM265.576 230.219C264.59 231.454 262.014 234.459 258.736 238.325C255.463 242.185 251.5 246.89 247.752 251.508C244.006 256.124 240.467 260.662 238.047 264.186C236.839 265.945 235.896 267.47 235.347 268.635C235.074 269.214 234.882 269.736 234.816 270.172C234.754 270.582 234.781 271.097 235.202 271.405L235.792 270.597C235.845 270.636 235.757 270.639 235.805 270.322C235.849 270.03 235.992 269.611 236.251 269.062C236.765 267.972 237.67 266.501 238.871 264.753C241.268 261.263 244.786 256.75 248.529 252.139C252.27 247.529 256.227 242.831 259.499 238.972C262.765 235.12 265.359 232.093 266.357 230.843L265.576 230.219ZM235.156 271.367C235.519 271.705 236.042 271.769 236.548 271.733C237.073 271.695 237.702 271.54 238.405 271.3C239.815 270.819 241.624 269.962 243.683 268.849C247.808 266.62 253.013 263.321 258.194 259.81C263.376 256.296 268.546 252.562 272.601 249.457C274.629 247.904 276.381 246.507 277.719 245.371C279.039 244.25 280 243.347 280.401 242.795L279.592 242.207C279.274 242.645 278.41 243.472 277.072 244.608C275.751 245.729 274.013 247.116 271.993 248.663C267.954 251.756 262.8 255.479 257.632 258.982C252.462 262.486 247.289 265.764 243.208 267.969C241.164 269.074 239.413 269.9 238.082 270.353C237.415 270.581 236.878 270.706 236.476 270.735C236.054 270.766 235.889 270.683 235.838 270.635L235.156 271.367ZM280.321 242.882C283.196 240.436 285.816 237.316 288.439 234.296C291.077 231.261 293.723 228.322 296.692 226.155L296.102 225.347C293.03 227.59 290.317 230.611 287.684 233.641C285.038 236.686 282.477 239.736 279.673 242.12L280.321 242.882ZM296.694 226.153C296.896 226.004 297.11 225.809 297.286 225.658C297.478 225.493 297.646 225.36 297.807 225.27C297.966 225.182 298.085 225.154 298.181 225.161C298.27 225.168 298.403 225.207 298.586 225.377L299.267 224.645C298.955 224.355 298.615 224.189 298.251 224.164C297.895 224.139 297.58 224.252 297.321 224.397C297.065 224.539 296.832 224.73 296.635 224.899C296.424 225.08 296.262 225.228 296.099 225.349L296.694 226.153ZM298.589 225.379C298.721 225.501 298.854 225.761 298.939 226.143C299.019 226.509 299.039 226.914 299.009 227.245L300.005 227.337C300.044 226.907 300.019 226.398 299.915 225.927C299.814 225.471 299.622 224.971 299.265 224.643L298.589 225.379ZM299.009 227.245C298.396 233.886 298.09 240.502 296.964 246.996L297.949 247.166C299.084 240.62 299.397 233.916 300.005 227.337L299.009 227.245ZM296.964 246.995C293.596 266.406 286.301 284.49 276.385 301.398L277.248 301.904C287.213 284.912 294.557 266.716 297.949 247.166L296.964 246.995ZM276.385 301.398C257.507 333.59 231.384 357.11 194.705 367.119L194.968 368.083C231.95 357.992 258.266 334.272 277.248 301.904L276.385 301.398ZM194.705 367.119C178.564 371.524 162.056 371.132 145.423 369.593L145.331 370.589C161.997 372.13 178.65 372.537 194.968 368.083L194.705 367.119ZM145.423 369.593C127.54 367.941 111.446 362.012 96.9718 351.427L96.3815 352.235C111.007 362.93 127.274 368.921 145.331 370.589L145.423 369.593ZM96.9721 351.428C95.9459 350.676 95.2689 349.945 94.8562 349.121C94.445 348.3 94.274 347.341 94.336 346.096L93.3373 346.046C93.2693 347.411 93.4533 348.552 93.962 349.569C94.4694 350.582 95.2774 351.426 96.3812 352.234L96.9721 351.428ZM94.3361 346.095C94.7952 336.454 95.882 326.956 98.931 317.809L97.9823 317.493C94.8913 326.766 93.7981 336.368 93.3372 346.047L94.3361 346.095ZM98.9309 317.809C102.142 308.185 106.133 298.915 110.518 289.706L109.615 289.276C105.22 298.507 101.211 307.817 97.9823 317.493L98.9309 317.809ZM110.518 289.706C115.958 278.299 122.758 268.085 131.455 259.129L130.738 258.433C121.955 267.477 115.096 277.783 109.615 289.276L110.518 289.706ZM131.456 259.129C146.519 243.598 165.791 235.989 186.446 231.369L186.228 230.393C165.482 235.033 145.994 242.704 130.738 258.433L131.456 259.129ZM186.446 231.369C198.169 228.746 209.881 225.476 220.57 220.433L220.143 219.529C209.552 224.526 197.924 227.776 186.227 230.393L186.446 231.369ZM220.57 220.433C238.821 211.835 254.034 198.828 266.159 182.378L265.354 181.784C253.319 198.114 238.232 211.007 220.144 219.529L220.57 220.433ZM207.39 188.221C197.376 180.16 187.182 172.905 177.093 165.805C167 158.702 157.017 151.757 147.403 144.306L146.79 145.096C156.427 152.565 166.433 159.525 176.518 166.622C186.606 173.722 196.777 180.962 206.763 189L207.39 188.221ZM147.403 144.306C146.576 143.664 145.797 142.582 145.127 141.209C144.461 139.843 143.921 138.226 143.551 136.558C143.181 134.889 142.985 133.183 143 131.639C143.014 130.088 143.242 128.738 143.691 127.76L142.782 127.342C142.251 128.499 142.015 130.007 142 131.629C141.984 133.259 142.191 135.043 142.575 136.774C142.959 138.506 143.522 140.199 144.229 141.647C144.931 143.088 145.792 144.323 146.79 145.096L147.403 144.306ZM143.691 127.76C146.582 121.485 148.756 115.008 147.469 107.754L146.484 107.928C147.717 114.873 145.651 121.117 142.783 127.342L143.691 127.76ZM147.469 107.753C145.446 96.3867 138.48 88.798 128.677 83.9724L128.236 84.8696C137.813 89.584 144.528 96.9353 146.484 107.929L147.469 107.753ZM128.677 83.9724C115.212 77.3433 108.344 66.7474 106.523 52.0196L105.53 52.1423C107.389 67.1746 114.442 78.0787 128.236 84.8696L128.677 83.9724ZM106.523 52.0191C106.263 49.9358 106.313 48.1872 106.725 46.5826C107.135 44.9808 107.913 43.4932 109.148 41.9424L108.365 41.3195C107.06 42.9587 106.208 44.5711 105.756 46.3343C105.305 48.0948 105.26 49.9761 105.53 52.1429L106.523 52.0191ZM109.148 41.9425C125.737 21.1166 154.212 12.516 180.016 21.9108L180.358 20.9712C154.141 11.4259 125.216 20.1653 108.366 41.3195L109.148 41.9425ZM180.015 21.9108C208.517 32.2949 222.899 54.5025 226.46 83.6516L227.453 83.5303C223.855 54.0794 209.276 31.507 180.358 20.9712L180.015 21.9108ZM226.46 83.6516C230.924 120.188 220.078 154.136 206.601 188.418L207.532 188.784C221.015 154.485 231.949 120.334 227.453 83.5303L226.46 83.6516ZM206.713 188.955L206.723 188.965L207.43 188.257L207.42 188.247L206.713 188.955ZM103.243 230.775C111.176 216.62 118.974 202.593 128.127 189.396L127.306 188.826C118.12 202.069 110.298 216.142 102.37 230.287L103.243 230.775ZM128.128 189.395C128.321 189.116 128.525 188.787 128.727 188.467C128.932 188.141 129.135 187.819 129.338 187.534C129.543 187.246 129.73 187.018 129.897 186.869C130.077 186.707 130.152 186.711 130.141 186.71L130.193 185.712C129.796 185.691 129.465 185.913 129.229 186.124C128.98 186.348 128.742 186.647 128.523 186.955C128.302 187.266 128.084 187.611 127.88 187.935C127.673 188.265 127.483 188.57 127.305 188.827L128.128 189.395ZM130.139 186.71C131.62 186.792 133.122 186.757 134.609 186.71C136.103 186.663 137.579 186.604 139.039 186.631C141.954 186.685 144.741 187.085 147.294 188.582L147.8 187.72C145.032 186.097 142.044 185.687 139.057 185.631C137.566 185.603 136.058 185.664 134.578 185.711C133.091 185.757 131.628 185.79 130.194 185.712L130.139 186.71ZM147.294 188.582C152.842 191.84 157.906 195.857 163.551 199.791L164.123 198.971C158.547 195.085 153.391 191.002 147.8 187.72L147.294 188.582ZM163.638 198.922C142.434 208.083 122.684 219.379 102.582 230.09L103.052 230.972C123.189 220.243 142.88 208.979 164.035 199.84L163.638 198.922ZM102.817 230.031H102.807V231.031H102.817V230.031ZM78.1302 222.698C83.0901 203.859 88.0602 185.018 93.0102 166.178L92.0431 165.924C87.0931 184.764 82.1232 203.603 77.1631 222.444L78.1302 222.698ZM93.0098 166.18C93.2441 165.301 93.7961 164.746 94.6195 164.288L94.1338 163.414C93.1572 163.956 92.3692 164.701 92.0435 165.922L93.0098 166.18ZM94.6192 164.288C96.9916 162.972 99.315 161.481 101.676 160.095C104.054 158.698 106.516 157.379 109.253 156.349L108.9 155.413C106.087 156.473 103.569 157.824 101.17 159.232C98.7532 160.651 96.5017 162.1 94.134 163.414L94.6192 164.288ZM108.589 155.992C110.038 162.329 111.4 168.444 112.86 174.538L113.833 174.304C112.374 168.218 111.015 162.113 109.564 155.77L108.589 155.992ZM112.861 174.539C113.337 176.508 112.646 177.938 111.357 179.537L112.136 180.165C113.507 178.464 114.416 176.714 113.833 174.303L112.861 174.539ZM111.356 179.538C106.994 184.982 102.721 190.495 98.442 195.994L99.2312 196.608C103.512 191.107 107.78 185.6 112.137 180.164L111.356 179.538ZM134.025 137.235C135.415 142.237 136.615 146.504 137.795 150.784L138.759 150.518C137.579 146.238 136.378 141.965 134.988 136.967L134.025 137.235ZM137.794 150.783C137.893 151.142 137.96 151.44 137.981 151.688C138.003 151.937 137.975 152.093 137.927 152.193C137.852 152.346 137.606 152.592 136.572 152.621L136.601 153.621C137.688 153.59 138.486 153.331 138.826 152.629C138.985 152.302 139.008 151.942 138.978 151.601C138.948 151.259 138.861 150.89 138.759 150.519L137.794 150.783ZM136.572 152.621C130.271 152.812 123.982 153.232 117.702 153.662L117.771 154.66C124.052 154.23 130.323 153.81 136.602 153.621L136.572 152.621ZM117.702 153.662C117.043 153.709 116.585 153.72 116.23 153.597C115.93 153.494 115.654 153.275 115.435 152.687L114.498 153.035C114.799 153.847 115.268 154.323 115.904 154.542C116.484 154.742 117.15 154.703 117.772 154.66L117.702 153.662ZM115.435 152.687C115.3 152.321 115.296 152.089 115.329 151.942C115.361 151.801 115.437 151.684 115.574 151.566C115.719 151.441 115.915 151.331 116.162 151.21C116.387 151.099 116.684 150.967 116.93 150.822L116.423 149.96C116.22 150.08 115.998 150.176 115.721 150.313C115.464 150.439 115.17 150.595 114.922 150.808C114.665 151.029 114.443 151.324 114.354 151.723C114.266 152.115 114.318 152.551 114.498 153.035L115.435 152.687ZM116.932 150.821C123.111 147.148 128.604 142.539 134.821 137.499L134.192 136.723C127.95 141.782 122.522 146.334 116.421 149.961L116.932 150.821ZM135.007 137.111V137.101H134.007V137.111H135.007ZM282.533 162.862C282.358 161.377 282.588 159.36 280.756 157.534L280.05 158.242C281.565 159.752 281.336 161.25 281.54 162.98L282.533 162.862ZM279.956 157.665C275.708 166.21 270.933 174.212 265.354 181.784L266.159 182.378C271.777 174.753 276.581 166.7 280.851 158.11L279.956 157.665ZM77.3693 222.987C77.4612 223.048 77.5552 223.109 77.6462 223.168C77.7381 223.228 77.8269 223.285 77.913 223.343L78.4671 222.51C78.3752 222.449 78.2812 222.388 78.1903 222.329C78.0986 222.27 78.0098 222.212 77.924 222.155L77.3693 222.987ZM78.5851 223.233C85.4645 214.364 92.3427 205.476 99.2315 196.608L98.4418 195.994C91.5528 204.863 84.6733 213.752 77.795 222.62L78.5851 223.233ZM293.807 208.591H292.807L294.774 208.843L293.807 208.591ZM298.127 189.321L299.118 189.454L299.118 189.453L298.127 189.321ZM290.707 131.641L289.768 131.986L289.769 131.988L290.707 131.641ZM288.567 127.161L289.412 126.626L289.409 126.622L288.567 127.161ZM275.527 126.921L274.696 126.364L274.695 126.366L275.527 126.921ZM271.997 134.571L271.057 134.228L271.057 134.228L271.997 134.571ZM242.927 183.311L243.636 184.016L243.636 184.016L242.927 183.311ZM218.997 202.091L218.026 201.849L217.434 204.225L219.52 202.943L218.997 202.091ZM225.867 185.331L224.962 184.905L224.962 184.905L225.867 185.331ZM243.027 122.571L242.036 122.437L242.036 122.437L243.027 122.571ZM241.027 68.131L240.061 68.3914L240.061 68.3918L241.027 68.131ZM179.237 3.831L179.474 2.85965L179.474 2.85962L179.237 3.831ZM93.4966 32.261L92.7407 31.6064L92.7405 31.6066L93.4966 32.261ZM75.1266 54.561L74.3685 53.9088L74.368 53.9094L75.1266 54.561ZM36.8166 81.461L37.1831 82.3914L37.1843 82.391L36.8166 81.461ZM23.1066 83.091L23.1142 84.091L23.1153 84.0909L23.1066 83.091ZM11.3466 84.671L11.7264 85.5961L11.7265 85.596L11.3466 84.671ZM6.56663 113.211L7.29345 112.524L7.29331 112.524L6.56663 113.211ZM39.1566 128.101L39.3165 127.114L39.3163 127.114L39.1566 128.101ZM82.1066 122.091L82.3531 123.06L82.3531 123.06L82.1066 122.091ZM122.017 111.581L122.272 112.548L122.273 112.548L122.017 111.581ZM128.957 111.791L128.16 112.395L128.161 112.396L128.957 111.791ZM127.227 118.201L126.347 117.726L126.346 117.727L127.227 118.201ZM113.317 132.161L113.875 132.991L113.875 132.991L113.317 132.161ZM70.7766 160.751L71.4113 161.524L71.4113 161.524L70.7766 160.751ZM24.3967 240.471L25.3893 240.592L25.3893 240.592L24.3967 240.471ZM56.9066 341.021L56.157 341.683L56.157 341.683L56.9066 341.021ZM117.947 381.681L118.244 380.726L118.244 380.726L117.947 381.681ZM246.987 359.961L247.589 360.759L247.589 360.759L246.987 359.961ZM314.567 239.201L315.558 239.333L315.558 239.333L314.567 239.201ZM315.027 213.331L314.036 213.465L314.036 213.465L315.027 213.331ZM298.817 206.241L298.234 205.428L298.233 205.429L298.817 206.241ZM295.087 208.691L294.563 207.839L294.56 207.841L295.087 208.691ZM293.807 208.581L293.908 207.586L292.807 207.474V208.581H293.807ZM280.397 157.881V156.881H277.972L279.692 158.59L280.397 157.881ZM280.407 157.881L281.302 158.326L282.021 156.881H280.407V157.881ZM78.1966 222.931V223.931H81.4994L78.7513 222.099L78.1966 222.931ZM78.1866 222.931L77.396 222.319L76.1476 223.931H78.1866V222.931ZM280.403 157.888L279.697 158.596L280.681 159.576L281.299 158.333L280.403 157.888ZM78.19 222.927L78.7442 222.094L77.9693 221.578L77.3994 222.314L78.19 222.927ZM294.774 208.843C296.437 202.462 298.228 196.08 299.118 189.454L297.136 189.188C296.266 195.662 294.516 201.9 292.839 208.339L294.774 208.843ZM299.118 189.453C301.804 169.327 298.578 150.061 291.645 131.294L289.769 131.988C296.616 150.521 299.769 169.455 297.136 189.189L299.118 189.453ZM291.645 131.296C291.06 129.705 290.342 128.095 289.412 126.626L287.722 127.696C288.552 129.007 289.213 130.477 289.768 131.986L291.645 131.296ZM289.409 126.622C287.557 123.725 284.904 122.11 282.118 122.047C279.326 121.985 276.624 123.486 274.696 126.364L276.358 127.477C277.979 125.056 280.087 124.002 282.073 124.047C284.065 124.092 286.156 125.247 287.724 127.7L289.409 126.622ZM274.695 126.366C273.079 128.789 272.014 131.608 271.057 134.228L272.936 134.914C273.9 132.274 274.894 129.673 276.359 127.476L274.695 126.366ZM271.057 134.228C264.485 152.252 255.808 168.916 242.217 182.606L243.636 184.016C257.505 170.046 266.308 153.09 272.936 134.914L271.057 134.228ZM242.218 182.606C235.257 189.606 227.541 195.667 218.473 201.239L219.52 202.943C228.713 197.294 236.556 191.136 243.636 184.016L242.218 182.606ZM219.967 202.333C221.526 196.076 224.341 190.922 226.772 185.757L224.962 184.905C222.593 189.94 219.647 195.346 218.026 201.849L219.967 202.333ZM226.771 185.757C236.251 165.631 241.09 144.421 244.018 122.705L242.036 122.437C239.123 144.041 234.323 165.031 224.962 184.905L226.771 185.757ZM244.018 122.705C246.487 104.406 246.86 85.8884 241.992 67.8702L240.061 68.3918C244.833 86.0535 244.486 104.276 242.036 122.437L244.018 122.705ZM241.992 67.8706C233.139 35.0496 213.703 11.2345 179.474 2.85965L178.999 4.80235C212.37 12.9674 231.354 36.1123 240.061 68.3914L241.992 67.8706ZM179.474 2.85962C162.238 -1.35471 146.338 -0.869515 131.835 4.04133C117.335 8.95098 104.295 18.2628 92.7407 31.6064L94.2526 32.9156C105.619 19.7891 118.373 10.711 132.476 5.93568C146.576 1.16152 162.085 0.666713 178.999 4.80239L179.474 2.85962ZM92.7405 31.6066C89.577 35.2622 86.5437 39.0258 83.5251 42.7765C80.5029 46.5317 77.4959 50.2735 74.3686 53.9088L75.8847 55.2131C79.0373 51.5485 82.0654 47.7802 85.0832 44.0305C88.1046 40.2762 91.1163 36.5398 94.2528 32.9154L92.7405 31.6066ZM74.368 53.9094C64.0125 65.9661 51.2609 74.6756 36.449 80.531L37.1843 82.391C52.2723 76.4264 65.3007 67.5358 75.8852 55.2125L74.368 53.9094ZM36.4502 80.5305C32.1432 82.2267 27.7957 82.0503 23.098 82.091L23.1153 84.0909C27.6576 84.0516 32.4501 84.2553 37.1831 82.3914L36.4502 80.5305ZM23.0991 82.091C19.1483 82.1207 14.9268 82.1197 10.9668 83.7459L11.7265 85.596C15.2665 84.1423 19.085 84.1212 23.1142 84.091L23.0991 82.091ZM10.9669 83.7459C-1.17269 88.7295 -3.74345 103.761 5.83995 113.898L7.29331 112.524C-1.46328 103.261 1.06595 89.9725 11.7264 85.5961L10.9669 83.7459ZM5.83982 113.898C14.8258 123.407 26.6208 127.086 38.9969 129.088L39.3163 127.114C27.0924 125.136 15.8275 121.555 7.29345 112.524L5.83982 113.898ZM38.9967 129.088C54.2582 131.56 68.3973 126.609 82.3531 123.06L81.8602 121.122C67.656 124.733 54.055 129.501 39.3165 127.114L38.9967 129.088ZM82.3531 123.06C95.6886 119.669 108.982 116.055 122.272 112.548L121.761 110.614C108.452 114.127 95.1847 117.733 81.8602 121.122L82.3531 123.06ZM122.273 112.548C123.537 112.213 124.774 111.82 125.916 111.718C127.039 111.619 127.735 111.834 128.16 112.395L129.754 111.187C128.708 109.807 127.124 109.603 125.74 109.726C124.374 109.847 122.876 110.319 121.761 110.614L122.273 112.548ZM128.161 112.396C128.468 112.8 128.495 113.43 128.061 114.505C127.628 115.576 126.948 116.611 126.347 117.726L128.107 118.676C128.595 117.771 129.43 116.456 129.915 115.254C130.399 114.057 130.746 112.492 129.753 111.186L128.161 112.396ZM126.346 117.727C123.223 123.529 118.288 127.608 112.758 131.331L113.875 132.991C119.485 129.214 124.75 124.913 128.107 118.675L126.346 117.727ZM112.758 131.331C98.6927 140.794 83.4446 149.053 70.142 159.978L71.4113 161.524C84.6287 150.669 99.5806 142.608 113.875 132.991L112.758 131.331ZM70.142 159.978C44.648 180.915 27.4715 206.993 23.404 240.35L25.3893 240.592C29.3818 207.849 46.2253 182.207 71.4113 161.524L70.142 159.978ZM23.404 240.35C18.6861 279.04 30.6764 312.82 56.157 341.683L57.6563 340.359C32.5168 311.882 20.7472 278.662 25.3893 240.592L23.404 240.35ZM56.157 341.683C72.9096 360.659 93.3196 375.054 117.649 382.636L118.244 380.726C94.3136 373.268 74.2037 359.103 57.6563 340.359L56.157 341.683ZM117.649 382.636C164.434 397.218 208.161 390.491 247.589 360.759L246.385 359.163C207.492 388.491 164.439 395.124 118.244 380.726L117.649 382.636ZM247.589 360.759C287.975 330.294 308.958 288.695 315.558 239.333L313.576 239.068C307.035 287.987 286.279 329.068 246.385 359.163L247.589 360.759ZM315.558 239.333C316.704 230.757 317.204 221.959 316.018 213.197L314.036 213.465C315.189 221.983 314.709 230.585 313.576 239.069L315.558 239.333ZM316.018 213.197C315.288 207.796 313.299 204.023 310.01 202.588C306.718 201.152 302.627 202.277 298.234 205.428L299.4 207.054C303.607 204.035 306.905 203.415 309.211 204.421C311.519 205.429 313.336 208.286 314.036 213.465L316.018 213.197ZM298.233 205.429C297.051 206.279 295.824 207.065 294.563 207.839L295.61 209.543C296.889 208.757 298.162 207.943 299.401 207.053L298.233 205.429ZM294.56 207.841C294.714 207.746 294.849 207.739 294.879 207.739C294.9 207.738 294.887 207.741 294.793 207.725C294.645 207.7 294.296 207.625 293.908 207.586L293.706 209.576C294.008 209.606 294.193 209.652 294.46 209.697C294.574 209.716 294.738 209.741 294.912 209.738C295.094 209.735 295.354 209.701 295.613 209.541L294.56 207.841ZM292.807 208.581V208.591H294.807V208.581H292.807ZM280.407 156.881H280.397V158.881H280.407V156.881ZM78.1866 223.931H78.1966V221.931H78.1866V223.931ZM281.299 158.333C281.299 158.333 281.299 158.333 281.299 158.333C281.299 158.332 281.299 158.332 281.3 158.331C281.3 158.33 281.301 158.328 281.302 158.326L279.511 157.436C279.511 157.436 279.511 157.436 279.511 157.436C279.511 157.436 279.511 157.437 279.511 157.437C279.51 157.438 279.509 157.44 279.508 157.442L281.299 158.333ZM279.692 158.59C279.694 158.592 279.692 158.591 279.697 158.596L281.11 157.18C281.109 157.179 281.108 157.178 281.107 157.177C281.106 157.176 281.104 157.174 281.102 157.172L279.692 158.59ZM77.3994 222.314L77.396 222.319L78.9773 223.543L78.9807 223.539L77.3994 222.314ZM78.7513 222.099C78.7499 222.098 78.7467 222.096 78.7442 222.094L77.6359 223.759C77.6378 223.76 77.639 223.761 77.6419 223.763L78.7513 222.099Z" fill="#7D3D38" mask="url(#path-1-outside-1_2856_57574)"/>
<path d="M293.807 208.591C295.477 202.181 297.247 195.871 298.127 189.321C300.787 169.391 297.597 150.291 290.707 131.641C290.137 130.091 289.447 128.551 288.567 127.161C285.147 121.811 279.077 121.621 275.527 126.921C273.987 129.231 272.957 131.941 271.997 134.571C265.397 152.671 256.657 169.481 242.927 183.311C235.907 190.371 228.127 196.481 218.997 202.091C220.587 195.711 223.467 190.431 225.867 185.331C235.287 165.331 240.107 144.231 243.027 122.571C245.487 104.341 245.847 85.971 241.027 68.131C232.247 35.581 213.037 12.101 179.237 3.831C145.087 -4.519 116.417 5.79101 93.4966 32.261C87.1966 39.541 81.4066 47.261 75.1266 54.561C64.6566 66.751 51.7666 75.551 36.8166 81.461C32.2966 83.241 27.7266 83.051 23.1066 83.091C19.1166 83.121 15.0966 83.131 11.3466 84.671C-0.0533676 89.351 -2.60337 103.511 6.56663 113.211C15.3266 122.481 26.8566 126.111 39.1566 128.101C54.1566 130.531 68.0266 125.671 82.1066 122.091C95.4366 118.701 108.717 115.091 122.017 111.581C124.397 110.951 127.487 109.851 128.957 111.791C130.257 113.501 128.317 116.181 127.227 118.201C123.987 124.221 118.887 128.411 113.317 132.161C99.1366 141.701 84.0366 149.861 70.7766 160.751C45.4366 181.561 28.4267 207.421 24.3967 240.471C19.7167 278.851 31.5966 312.351 56.9066 341.021C73.5566 359.881 93.8166 374.161 117.947 381.681C164.437 396.171 207.827 389.491 246.987 359.961C287.127 329.681 307.997 288.341 314.567 239.201C315.707 230.671 316.197 221.971 315.027 213.331C313.597 202.751 307.417 200.071 298.817 206.241C297.607 207.111 296.357 207.911 295.087 208.691C294.877 208.821 294.497 208.651 293.807 208.581V208.591ZM66.7466 83.441C67.0966 83.041 67.65 82.4 68 82C78.57 73.61 88.9766 65.481 97.5266 54.191C99.8566 73.501 110.147 86.621 127.547 94.681C124.027 96.121 121.207 96.951 118.347 97.581C96.3266 102.461 74.6266 108.821 52.3166 112.431C41.6266 114.161 31.6466 112.281 22.5966 106.161C18.0066 103.061 17.5766 99.901 21.1966 96.291C23.7966 94.941 26.6566 95.301 29.4166 94.991C34.4166 94.431 39.4266 93.891 44.4066 93.221C52.3566 92.151 58.9966 87.881 65.8666 84.201C66.1566 83.941 66.4466 83.691 66.7366 83.431L66.7466 83.441ZM200.5 194.5C202 195.5 201.771 196.457 201.5 197C199.07 201.86 198.58 202.71 196 207.5C195 209 193.5 208.667 192.5 208C188 205 187.5 204.704 182.877 202.031C172.5 196.031 162.517 189.201 152.627 182.341C151.157 181.321 150.457 180.101 150.207 178.291C149.097 170.271 147.817 162.271 146.507 153.641C153.377 158.691 159.717 163.561 166.267 168.131C178.247 176.471 189.45 184.95 200.5 194.5ZM280.397 157.881C280.399 157.883 280.401 157.885 280.403 157.888C282.076 159.556 281.847 161.313 282.037 162.921C284.637 184.491 280.657 204.581 270.497 223.501C269.247 225.841 267.497 228.501 265.967 230.531C261.997 235.501 232.557 268.851 235.497 271.001C238.815 274.093 277.121 246.461 279.997 242.501C285.677 237.671 290.357 230.161 296.397 225.751C297.127 225.211 297.937 224.091 298.927 225.011C299.417 225.461 299.577 226.531 299.507 227.291C298.897 233.901 298.587 240.561 297.457 247.081C294.077 266.561 286.757 284.701 276.817 301.651C257.887 333.931 231.667 357.551 194.837 367.601C178.607 372.031 162.027 371.631 145.377 370.091C127.407 368.431 111.227 362.471 96.6766 351.831C94.5466 350.271 93.7066 348.681 93.8366 346.071C94.2966 336.411 95.3866 326.861 98.4566 317.651C101.677 308.001 105.677 298.711 110.067 289.491C115.527 278.041 122.357 267.781 131.097 258.781C146.257 243.151 165.637 235.511 186.337 230.881C198.047 228.261 209.717 225.001 220.357 219.981C238.527 211.421 253.677 198.471 265.757 182.081C271.355 174.483 276.144 166.455 280.403 157.888C280.405 157.885 280.406 157.883 280.407 157.881H280.397ZM207.077 188.611C187.077 172.511 166.347 159.621 147.097 144.701C143.447 141.871 141.277 131.821 143.237 127.551C146.117 121.301 148.237 114.941 146.977 107.841C144.987 96.661 138.147 89.191 128.457 84.421C114.827 77.711 107.867 66.961 106.027 52.081C105.497 47.831 106.217 44.821 108.757 41.631C125.477 20.641 154.177 11.971 180.187 21.441C208.897 31.901 223.377 54.291 226.957 83.591C231.437 120.261 220.547 154.311 207.067 188.601L207.077 188.611ZM102.807 230.531C110.737 216.381 118.547 202.331 127.717 189.111C128.457 188.041 129.397 186.171 130.167 186.211C135.997 186.531 142.227 185.031 147.547 188.151C153.117 191.421 158.227 195.471 163.837 199.381C142.657 208.531 122.937 219.811 102.817 230.531H102.807ZM78.1966 222.931C78.1944 222.93 78.1922 222.928 78.19 222.927C78.012 222.808 77.8244 222.69 77.6466 222.571C82.6066 203.731 87.5766 184.891 92.5266 166.051C92.8066 165.001 93.4766 164.351 94.3766 163.851C99.1166 161.221 103.527 157.971 109.077 155.881C110.527 162.221 111.887 168.331 113.347 174.421C113.877 176.611 113.077 178.201 111.747 179.851C107.387 185.291 103.117 190.801 98.8366 196.301C91.9478 205.17 85.0689 214.058 78.19 222.927L78.1866 222.931H78.1966ZM134.507 137.101C135.897 142.101 137.097 146.371 138.277 150.651C138.677 152.111 138.707 153.061 136.587 153.121C130.297 153.311 124.017 153.731 117.737 154.161C116.457 154.251 115.487 154.261 114.967 152.861C114.337 151.161 115.777 150.921 116.677 150.391C122.817 146.741 128.277 142.161 134.507 137.111V137.101Z" fill="#7D3D38"/>
<path d="M207.077 188.611C187.077 172.511 166.347 159.621 147.097 144.701C143.447 141.871 141.277 131.821 143.237 127.551C146.117 121.301 148.237 114.941 146.977 107.841C144.987 96.661 138.147 89.191 128.457 84.421C114.827 77.711 107.867 66.961 106.027 52.081C105.497 47.831 106.217 44.821 108.757 41.631C125.477 20.641 154.177 11.971 180.187 21.441C208.897 31.901 223.377 54.291 226.957 83.591C231.437 120.261 220.547 154.311 207.067 188.601L207.077 188.611Z" fill="#F9695E"/>
<path d="M282.037 162.921C281.847 161.313 282.076 159.556 280.403 157.888C276.144 166.455 271.355 174.483 265.757 182.081C253.677 198.471 238.527 211.421 220.357 219.981C209.717 225.001 198.047 228.261 186.337 230.881C165.637 235.511 146.257 243.151 131.097 258.781C122.357 267.781 115.527 278.041 110.067 289.491C105.677 298.711 101.677 308.001 98.4566 317.651C95.3866 326.861 94.2966 336.411 93.8366 346.071C93.7066 348.681 94.5466 350.271 96.6766 351.831C111.227 362.471 127.407 368.431 145.377 370.091C162.027 371.631 178.607 372.031 194.837 367.601C231.667 357.551 257.887 333.931 276.817 301.651C286.757 284.701 294.077 266.561 297.457 247.081C298.587 240.561 298.897 233.901 299.507 227.291C299.577 226.531 299.417 225.461 298.927 225.011C297.937 224.091 297.127 225.211 296.397 225.751C290.357 230.161 285.677 237.671 279.997 242.501C277.121 246.461 238.815 274.093 235.497 271.001C232.557 268.851 261.997 235.501 265.967 230.531C267.497 228.501 269.247 225.841 270.497 223.501C280.657 204.581 284.637 184.491 282.037 162.921Z" fill="#F9695E"/>
<path d="M200.5 194.5C202 195.5 201.771 196.457 201.5 197C199.07 201.86 198.58 202.71 196 207.5C195 209 193.5 208.667 192.5 208C188 205 187.5 204.704 182.877 202.031C172.5 196.031 162.517 189.201 152.627 182.341C151.157 181.321 150.457 180.101 150.207 178.291C149.097 170.271 147.817 162.271 146.507 153.641C153.377 158.691 159.717 163.561 166.267 168.131C178.247 176.471 189.45 184.95 200.5 194.5Z" fill="#F9695E"/>
<path d="M102.807 230.531C110.737 216.381 118.547 202.331 127.717 189.111C128.457 188.041 129.397 186.171 130.167 186.211C135.997 186.531 142.227 185.031 147.547 188.151C153.117 191.421 158.227 195.471 163.837 199.381C142.657 208.531 122.937 219.811 102.817 230.531H102.807Z" fill="#F9695E"/>
<path d="M77.6466 222.571C77.8244 222.69 78.012 222.808 78.19 222.927C85.0689 214.058 91.9478 205.17 98.8366 196.301C103.117 190.801 107.387 185.291 111.747 179.851C113.077 178.201 113.877 176.611 113.347 174.421C111.887 168.331 110.527 162.221 109.077 155.881C103.527 157.971 99.1166 161.221 94.3766 163.851C93.4766 164.351 92.8066 165.001 92.5266 166.051C87.5766 184.891 82.6066 203.731 77.6466 222.571Z" fill="#F9695E"/>
<path d="M134.507 137.101C135.897 142.101 137.097 146.371 138.277 150.651C138.677 152.111 138.707 153.061 136.587 153.121C130.297 153.311 124.017 153.731 117.737 154.161C116.457 154.251 115.487 154.261 114.967 152.861C114.337 151.161 115.777 150.921 116.677 150.391C122.817 146.741 128.277 142.161 134.507 137.111V137.101Z" fill="#F9695E"/>
<path d="M66.7466 83.441C67.0966 83.041 67.65 82.4 68 82C78.57 73.61 88.9766 65.481 97.5266 54.191C99.8566 73.501 110.147 86.621 127.547 94.681C124.027 96.121 121.207 96.951 118.347 97.581C96.3266 102.461 74.6266 108.821 52.3166 112.431C41.6266 114.161 31.6466 112.281 22.5966 106.161C18.0066 103.061 17.5766 99.901 21.1966 96.291C23.7966 94.941 26.6566 95.301 29.4166 94.991C34.4166 94.431 39.4266 93.891 44.4066 93.221C52.3566 92.151 58.9966 87.881 65.8666 84.201C66.1566 83.941 66.4466 83.691 66.7366 83.431L66.7466 83.441Z" fill="#F9695E"/>
</svg>
