<svg width="196" height="196" viewBox="0 0 196 196" fill="none" xmlns="http://www.w3.org/2000/svg">
<mask id="mask0_2840_51690" style="mask-type:luminance" maskUnits="userSpaceOnUse" x="0" y="0" width="196" height="196">
<path d="M195.783 0H0V195.655H195.783V0Z" fill="white"/>
</mask>
<g mask="url(#mask0_2840_51690)">
<path d="M162.911 24.569C145.508 44.169 128.105 63.838 110.702 83.4379C110.011 86.1295 109.666 87.3717 109.666 87.3717C109.666 87.3717 127.552 75.7083 164.568 51.5535C164.844 41.3394 165.259 29.1929 165.259 29.1929C165.259 29.1929 164.43 27.6056 162.911 24.569Z" fill="#050505"/>
<path d="M114.224 138.166C130.453 121.879 146.682 105.522 162.911 89.2351C155.66 91.5816 152 92.7548 152 92.7548C152 92.7548 138.257 101.658 112.843 118.221C112.774 121.81 112.774 125.398 112.705 129.056C112.636 132.3 112.636 134.715 112.636 134.715C112.636 134.715 113.257 136.096 114.224 138.166Z" fill="#050505"/>
<path d="M195.783 68.8068L114.224 119.601V138.235H195.783V170.81H81.5592V140.098L32.596 171.086H0V105.867C0 105.867 0 40.442 57.1121 40.442C91.849 40.442 105.592 64.4589 110.702 83.5068L195.783 30.366V68.8068ZM81.352 101.658C80.4542 93.0308 76.2416 73.2237 57.1121 73.2237C32.8723 73.2237 32.8723 105.798 32.8723 105.798V132.093L81.352 101.658Z" fill="#050505"/>
<path d="M195.783 24.569H162.911V170.81H195.783V24.569Z" fill="#050505"/>
</g>
</svg>
