<svg width="849" height="181" viewBox="0 0 849 181" fill="none" xmlns="http://www.w3.org/2000/svg">
<g opacity="0.5">
<path d="M109.951 73.6597L162.436 20.4082L165.309 24.4308V71.3611L109.951 73.6597Z" fill="#313131"/>
<path d="M113.767 127.805C129.931 111.582 146.095 95.2915 162.259 79.0693C155.037 81.4064 151.391 82.575 151.391 82.575C151.391 82.575 137.704 91.4422 112.391 107.939C112.323 111.514 112.323 115.088 112.254 118.731C112.185 121.962 112.185 124.368 112.185 124.368C112.185 124.368 112.804 125.742 113.767 127.805Z" fill="#313131"/>
<path d="M195 58.7226L113.767 109.314V127.873H195V160.317H81.2328V129.729L32.4656 160.592H0V95.6348C0 95.6348 0 30.4713 56.8836 30.4713C91.4815 30.4713 105.169 54.3921 110.259 73.3637L195 20.4355V58.7226ZM81.0265 91.4418C80.1323 82.8496 75.9365 63.1218 56.8836 63.1218C32.7407 63.1218 32.7407 95.5661 32.7407 95.5661V121.755L81.0265 91.4418Z" fill="#313131"/>
<path d="M195 20.4082H162.436V160.241H195V20.4082Z" fill="#313131"/>
<path d="M298.932 41.36C314.845 41.36 327.165 45.7747 335.892 54.604C344.619 63.3307 348.982 75.856 348.982 92.18C348.982 108.401 344.619 120.927 335.892 129.756C327.165 138.585 314.845 143 298.932 143H259.662V41.36H298.932ZM297.854 126.06C307.505 126.06 314.743 123.185 319.568 117.436C324.496 111.584 326.96 103.165 326.96 92.18C326.96 81.1947 324.496 72.8273 319.568 67.078C314.743 61.226 307.505 58.3 297.854 58.3H280.914V126.06H297.854ZM394.989 144.54C389.856 144.54 385.236 143.616 381.129 141.768C377.023 139.92 373.737 136.994 371.273 132.99C368.912 128.883 367.731 123.596 367.731 117.128V66H388.829V112.046C388.829 118.001 390.061 122.159 392.525 124.52C394.989 126.779 398.531 127.908 403.151 127.908C405.307 127.908 407.412 127.549 409.465 126.83C411.519 126.009 413.315 124.777 414.855 123.134C416.498 121.491 417.781 119.387 418.705 116.82C419.629 114.151 420.091 111.019 420.091 107.426V66H441.189V143H422.401L421.631 129.602C419.065 134.735 415.523 138.534 411.005 140.998C406.591 143.359 401.252 144.54 394.989 144.54ZM498.349 64.46C505.227 64.46 511.028 65.4867 515.751 67.54C520.576 69.4907 524.426 72.2113 527.301 75.702C530.278 79.09 532.383 82.8887 533.615 87.098L513.903 94.182C512.876 89.562 511.131 86.0713 508.667 83.71C506.203 81.3487 502.866 80.168 498.657 80.168C494.755 80.168 491.419 81.092 488.647 82.94C485.875 84.6853 483.77 87.406 482.333 91.102C480.895 94.6953 480.177 99.2127 480.177 104.654C480.177 110.095 480.895 114.613 482.333 118.206C483.873 121.799 486.029 124.469 488.801 126.214C491.675 127.959 495.012 128.832 498.811 128.832C501.891 128.832 504.509 128.319 506.665 127.292C508.821 126.163 510.566 124.571 511.901 122.518C513.338 120.465 514.313 118.001 514.827 115.126L533.923 121.286C532.793 125.906 530.689 129.961 527.609 133.452C524.529 136.943 520.576 139.663 515.751 141.614C510.925 143.565 505.33 144.54 498.965 144.54C491.059 144.54 484.078 142.949 478.021 139.766C471.963 136.583 467.292 132.015 464.007 126.06C460.721 120.105 459.079 112.919 459.079 104.5C459.079 96.0813 460.721 88.8947 464.007 82.94C467.292 76.9853 471.912 72.4167 477.867 69.234C483.821 66.0513 490.649 64.46 498.349 64.46ZM584.659 30.734C588.252 30.734 591.486 31.1447 594.361 31.966C597.338 32.6847 599.545 33.6087 600.983 34.738L598.057 48.752C596.927 48.0333 595.644 47.4687 594.207 47.058C592.769 46.6473 591.075 46.442 589.125 46.442C585.121 46.442 581.938 47.366 579.577 49.214C577.215 50.9593 576.035 53.988 576.035 58.3V68.926L576.959 73.084V143H555.861V56.76C555.861 52.448 556.579 48.6493 558.017 45.364C559.454 42.0787 561.456 39.358 564.023 37.202C566.589 35.046 569.618 33.4547 573.109 32.428C576.702 31.2987 580.552 30.734 584.659 30.734ZM600.367 66V81.708H542.463V66H600.367ZM633.785 32.274V119.284C633.785 122.877 634.401 125.393 635.633 126.83C636.865 128.267 638.918 128.986 641.793 128.986C643.538 128.986 644.975 128.883 646.105 128.678C647.234 128.37 648.671 127.959 650.417 127.446L648.569 141.306C646.823 142.333 644.616 143.103 641.947 143.616C639.38 144.232 636.813 144.54 634.247 144.54C626.752 144.54 621.259 142.743 617.769 139.15C614.381 135.454 612.687 129.602 612.687 121.594V32.274H633.785ZM706.699 93.874C706.699 89.4593 705.415 86.02 702.849 83.556C700.385 81.092 697.099 79.86 692.993 79.86C689.194 79.86 685.857 80.8353 682.983 82.786C680.108 84.7367 678.003 87.9707 676.669 92.488L658.651 86.944C660.396 80.168 664.195 74.7267 670.047 70.62C676.001 66.5133 683.958 64.46 693.917 64.46C700.693 64.46 706.596 65.538 711.627 67.694C716.657 69.7473 720.559 72.8787 723.331 77.088C726.205 81.2973 727.643 86.5847 727.643 92.95V124.212C727.643 128.113 729.491 130.064 733.187 130.064C734.932 130.064 736.575 129.807 738.115 129.294L736.883 142.384C734.213 143.719 730.877 144.386 726.873 144.386C723.279 144.386 720.045 143.77 717.171 142.538C714.296 141.306 712.037 139.458 710.395 136.994C708.752 134.427 707.931 131.245 707.931 127.446V126.83L711.627 126.214C711.011 130.115 709.317 133.452 706.545 136.224C703.773 138.893 700.385 140.947 696.381 142.384C692.479 143.821 688.424 144.54 684.215 144.54C678.979 144.54 674.461 143.77 670.663 142.23C666.864 140.587 663.938 138.226 661.885 135.146C659.831 132.066 658.805 128.267 658.805 123.75C658.805 118.001 660.653 113.329 664.349 109.736C668.045 106.04 673.332 103.525 680.211 102.19L709.163 96.338L709.009 109.428L690.529 113.124C687.038 113.843 684.369 114.818 682.521 116.05C680.775 117.179 679.903 119.079 679.903 121.748C679.903 124.315 680.827 126.265 682.675 127.6C684.625 128.935 686.935 129.602 689.605 129.602C691.761 129.602 693.865 129.345 695.919 128.832C697.972 128.319 699.82 127.497 701.463 126.368C703.105 125.239 704.389 123.699 705.313 121.748C706.237 119.797 706.699 117.436 706.699 114.664V93.874ZM761.864 54.912C757.45 54.912 754.164 53.988 752.008 52.14C749.852 50.1893 748.774 47.366 748.774 43.67C748.774 39.8713 749.852 37.048 752.008 35.2C754.164 33.2493 757.45 32.274 761.864 32.274C766.279 32.274 769.564 33.2493 771.72 35.2C773.876 37.048 774.954 39.8713 774.954 43.67C774.954 47.366 773.876 50.1893 771.72 52.14C769.564 53.988 766.279 54.912 761.864 54.912ZM772.336 66V143H751.238V66H772.336ZM794.701 143V66H813.027L814.413 81.092C816.467 75.7533 819.444 71.6467 823.345 68.772C827.349 65.8973 832.329 64.46 838.283 64.46C840.029 64.46 841.62 64.614 843.057 64.922C844.495 65.23 845.675 65.6407 846.599 66.154L844.135 83.864C843.109 83.4533 841.825 83.1453 840.285 82.94C838.848 82.7347 836.949 82.632 834.587 82.632C831.507 82.632 828.53 83.402 825.655 84.942C822.781 86.3793 820.419 88.638 818.571 91.718C816.723 94.6953 815.799 98.494 815.799 103.114V143H794.701Z" fill="#313131"/>
</g>
</svg>
