<svg width="1024" height="1024" viewBox="0 0 1024 1024" fill="none" xmlns="http://www.w3.org/2000/svg">
<rect width="1024" height="1024" rx="224" fill="url(#paint0_linear_4208_46327)"/>
<g filter="url(#filter0_d_4208_46327)">
<g filter="url(#filter1_i_4208_46327)">
<path d="M759.462 467.889C698.288 528.382 633.45 591.528 572.276 652.021L571.658 581.725L759.462 467.889Z" fill="#2D2D2D"/>
</g>
<path d="M881 393.896L577.232 580.302C574.954 581.7 573.565 584.181 573.565 586.854V650.769H881V766.081C881 770.327 877.558 773.769 873.312 773.769H458.122C453.877 773.769 450.435 770.327 450.435 766.081V661.452C450.435 660.245 449.108 659.508 448.084 660.147L269.604 771.443C267.164 772.964 264.345 773.771 261.469 773.771H150.687C146.442 773.771 143 770.329 143 766.084V531.543C143 531.543 143 288.547 358.283 288.547C489.222 288.547 541.025 377.748 560.289 448.494L869.283 258.334C874.405 255.182 881 258.867 881 264.881V393.896ZM448.832 516.416C449.335 516.105 449.618 515.56 449.553 514.973C445.959 482.46 429.698 410.301 358.283 410.301C266.911 410.301 266.911 531.287 266.911 531.287V626.188C266.911 627.393 268.233 628.129 269.257 627.496L448.832 516.416Z" fill="#2D2D2D" stroke="#2D2D2D" stroke-width="1.04919"/>
<path d="M880.998 258.688C880.998 254.442 877.556 251 873.311 251H765.686C761.44 251 757.998 254.442 757.998 258.688V773.75H873.311C877.556 773.75 880.998 770.308 880.998 766.062V258.688Z" fill="#2D2D2D" stroke="#2D2D2D" stroke-width="1.04919"/>
<path d="M556.971 451.624L755.769 253.246C757.21 251.808 759.163 251 761.199 251H773.394V347.23H758.017L556.971 451.624Z" fill="#2D2D2D" stroke="#2D2D2D" stroke-width="1.04919"/>
</g>
<defs>
<filter id="filter0_d_4208_46327" x="86.5846" y="230.035" width="850.831" height="635.6" filterUnits="userSpaceOnUse" color-interpolation-filters="sRGB">
<feFlood flood-opacity="0" result="BackgroundImageFix"/>
<feColorMatrix in="SourceAlpha" type="matrix" values="0 0 0 0 0 0 0 0 0 0 0 0 0 0 0 0 0 0 127 0" result="hardAlpha"/>
<feOffset dy="35.45"/>
<feGaussianBlur stdDeviation="27.945"/>
<feComposite in2="hardAlpha" operator="out"/>
<feColorMatrix type="matrix" values="0 0 0 0 0 0 0 0 0 0 0 0 0 0 0 0 0 0 0.18 0"/>
<feBlend mode="normal" in2="BackgroundImageFix" result="effect1_dropShadow_4208_46327"/>
<feBlend mode="normal" in="SourceGraphic" in2="effect1_dropShadow_4208_46327" result="shape"/>
</filter>
<filter id="filter1_i_4208_46327" x="571.658" y="467.889" width="190.88" height="193.358" filterUnits="userSpaceOnUse" color-interpolation-filters="sRGB">
<feFlood flood-opacity="0" result="BackgroundImageFix"/>
<feBlend mode="normal" in="SourceGraphic" in2="BackgroundImageFix" result="shape"/>
<feColorMatrix in="SourceAlpha" type="matrix" values="0 0 0 0 0 0 0 0 0 0 0 0 0 0 0 0 0 0 127 0" result="hardAlpha"/>
<feOffset dx="3.075" dy="9.225"/>
<feGaussianBlur stdDeviation="15.375"/>
<feComposite in2="hardAlpha" operator="arithmetic" k2="-1" k3="1"/>
<feColorMatrix type="matrix" values="0 0 0 0 0 0 0 0 0 0 0 0 0 0 0 0 0 0 0.4 0"/>
<feBlend mode="normal" in2="shape" result="effect1_innerShadow_4208_46327"/>
</filter>
<linearGradient id="paint0_linear_4208_46327" x1="512" y1="0" x2="512" y2="1024" gradientUnits="userSpaceOnUse">
<stop stop-color="#F9695E"/>
<stop offset="1" stop-color="#933F38"/>
</linearGradient>
</defs>
</svg>
