<?xml version="1.0" encoding="UTF-8" standalone="yes"?>
<svg width="1200" height="1200" viewBox="0 0 1200 1200" fill="none" version="1.2" baseProfile="tiny-ps" xmlns="http://www.w3.org/2000/svg">
  <title>bimi-svg-tiny-12-ps</title>
  <rect width="1200" height="1200" fill="#111111"/>
  <path d="M637.42 549.545L794.669 390L803.278 402.052V542.658L637.42 549.545Z" fill="white"/>
  <path d="M648.853 711.766C697.281 663.163 745.71 614.355 794.138 565.752C772.5 572.754 761.578 576.255 761.578 576.255C761.578 576.255 720.568 602.822 644.731 652.248C644.525 662.957 644.525 673.666 644.319 684.581C644.113 694.261 644.113 701.469 644.113 701.469C644.113 701.469 645.968 705.587 648.853 711.766Z" fill="#F8F8F8"/>
  <path d="M892.232 504.791L648.854 656.366V711.97H892.232V809.175H551.379V717.531L405.269 809.999H308V615.383C308 615.383 308 420.149 478.427 420.149C582.084 420.149 623.094 491.817 638.344 548.657L892.232 390.081V504.791ZM550.76 602.82C548.081 577.077 535.511 517.972 478.427 517.972C406.093 517.972 406.093 615.177 406.093 615.177V693.641L550.76 602.82Z" fill="white"/>
  <path d="M892.232 390H794.669V808.949H892.232V390Z" fill="white"/>
</svg>