<svg width="82" height="82" viewBox="0 0 82 82" fill="none" xmlns="http://www.w3.org/2000/svg">
<path d="M69 45L76 49L50.5666 63.5333C50.0775 63.8129 49.5715 63.1957 49.9415 62.7708L61.5 49.5L69 45Z" fill="black" stroke="white" stroke-width="1.5" stroke-linejoin="round"/>
<path d="M20 69V29L41 17V57L20 69Z" fill="black" stroke="white" stroke-width="1.5" stroke-linejoin="round"/>
<path d="M50.5846 63.5231L76 49V61L42.4961 80.1451C41.8295 80.526 41 80.0446 41 79.2768V41L76 21V33L49.9603 62.7597C49.5888 63.1842 50.0949 63.8029 50.5846 63.5231Z" fill="black" stroke="white" stroke-width="1.5" stroke-linejoin="round"/>
<path d="M20 29V69L6 61V21L20 29Z" fill="black" stroke="white" stroke-width="1.5" stroke-linejoin="round"/>
<path d="M41 41L76 21L41 1L6 21L20 29L39.5039 17.8549C40.1705 17.474 41 17.9554 41 18.7232V41Z" fill="black" stroke="white" stroke-width="1.5" stroke-linejoin="round"/>
</svg>
